<svg viewBox="0 0 1002 246" fill="none" xmlns="http://www.w3.org/2000/svg">
<path fill="currentcolor" d="M58.848 245.272H14.208C9.6 245.272 6.24 244.216 4.128 242.104C2.016 239.992 0.960001 236.632 0.960001 232.024V45.4C0.960001 42.904 1.248 40.792 1.824 39.064C2.592 37.336 3.648 35.896 4.992 34.744L42.144 3.352C43.104 2.58399 44.352 2.00799 45.888 1.62398C47.616 1.04799 49.44 0.759995 51.36 0.759995H179.808C184.416 0.759995 187.776 1.81599 189.888 3.92799C192 6.04 193.056 9.4 193.056 14.008V48.28C193.056 50.776 192.672 52.888 191.904 54.616C191.328 56.344 190.368 57.784 189.024 58.936L156.768 85.72C161.184 85.72 164.448 86.776 166.56 88.888C168.672 91 169.728 94.36 169.728 98.968V133.528C169.728 136.024 169.344 138.136 168.576 139.864C168 141.592 167.04 143.032 165.696 144.184L128.256 175.288C127.488 176.056 126.24 176.728 124.512 177.304C122.976 177.88 121.248 178.168 119.328 178.168H109.248V200.632C109.248 203.128 108.864 205.24 108.096 206.968C107.52 208.696 106.56 210.136 105.216 211.288L67.776 242.392C67.008 243.16 65.76 243.832 64.032 244.408C62.496 244.984 60.768 245.272 58.848 245.272ZM96 211C99.648 211 102.24 210.232 103.776 208.696C105.504 206.968 106.368 204.28 106.368 200.632V143.896H156.48C160.128 143.896 162.72 143.128 164.256 141.592C165.984 139.864 166.848 137.176 166.848 133.528V98.968C166.848 95.32 165.984 92.728 164.256 91.192C162.72 89.464 160.128 88.6 156.48 88.6H106.368V58.648H179.808C183.456 58.648 186.048 57.88 187.584 56.344C189.312 54.616 190.176 51.928 190.176 48.28V14.008C190.176 10.36 189.312 7.768 187.584 6.23199C186.048 4.50399 183.456 3.63999 179.808 3.63999H51.36C47.712 3.63999 45.024 4.50399 43.296 6.23199C41.76 7.768 40.992 10.36 40.992 14.008V200.632C40.992 204.28 41.76 206.968 43.296 208.696C45.024 210.232 47.712 211 51.36 211H96ZM72.384 185.08V29.56H164.256V32.44H75.264V114.808H140.928V117.688H75.264V185.08H72.384ZM266.352 245.272H208.176C203.568 245.272 200.208 244.216 198.096 242.104C195.984 239.992 194.928 236.632 194.928 232.024V173.56C194.928 171.064 195.216 168.952 195.792 167.224C196.56 165.304 197.52 163.864 198.672 162.904L236.112 131.512C237.072 130.744 238.32 130.168 239.856 129.784C241.392 129.208 243.216 128.92 245.328 128.92H303.504C308.112 128.92 311.472 129.976 313.584 132.088C315.696 134.008 316.752 137.368 316.752 142.168V200.632C316.752 203.128 316.368 205.24 315.6 206.968C315.024 208.696 314.064 210.136 312.72 211.288L275.28 242.392C274.512 243.16 273.264 243.832 271.536 244.408C270 244.984 268.272 245.272 266.352 245.272ZM303.504 211C307.152 211 309.744 210.232 311.28 208.696C313.008 206.968 313.872 204.28 313.872 200.632V142.168C313.872 138.52 313.008 135.928 311.28 134.392C309.744 132.664 307.152 131.8 303.504 131.8H245.328C241.68 131.8 238.992 132.664 237.264 134.392C235.728 135.928 234.96 138.52 234.96 142.168V200.632C234.96 204.28 235.728 206.968 237.264 208.696C238.992 210.232 241.68 211 245.328 211H303.504ZM272.976 185.08V157.72H275.856V185.08H272.976ZM432.116 245.272H385.46C380.66 245.272 377.204 244.216 375.092 242.104C373.172 239.992 372.212 236.632 372.212 232.024V196.024L328.724 137.848C324.116 131.704 321.044 126.328 319.508 121.72C317.972 117.112 317.204 110.104 317.204 100.696V45.4C317.204 42.904 317.492 40.792 318.068 39.064C318.836 37.336 319.892 35.896 321.236 34.744L358.388 3.352C359.348 2.58399 360.596 2.00799 362.132 1.62398C363.86 1.04799 365.684 0.759995 367.604 0.759995H411.956C416.564 0.759995 419.924 1.81599 422.036 3.92799C424.148 6.04 425.204 9.4 425.204 14.008V61.24C425.204 62.968 425.3 64.696 425.492 66.424C425.684 68.152 426.26 69.976 427.22 71.896L430.676 76.792V45.4C430.676 42.904 430.964 40.792 431.54 39.064C432.308 37.336 433.364 35.896 434.708 34.744L471.86 3.352C472.82 2.58399 474.068 2.00799 475.604 1.62398C477.332 1.04799 479.156 0.759995 481.076 0.759995H523.988C528.596 0.759995 531.956 1.81599 534.068 3.92799C536.18 6.04 537.236 9.4 537.236 14.008V69.304C537.236 78.712 536.468 85.72 534.932 90.328C533.396 94.936 530.324 100.312 525.716 106.456L482.516 164.92V200.632C482.516 203.128 482.132 205.24 481.364 206.968C480.788 208.696 479.828 210.136 478.484 211.288L441.044 242.392C440.276 243.16 439.028 243.832 437.3 244.408C435.764 244.984 434.036 245.272 432.116 245.272ZM469.268 211C472.916 211 475.508 210.232 477.044 208.696C478.772 206.968 479.636 204.28 479.636 200.632V164.056L523.412 104.728C527.636 98.776 530.516 93.592 532.052 89.176C533.588 84.76 534.356 78.136 534.356 69.304V14.008C534.356 10.36 533.492 7.768 531.764 6.23199C530.228 4.50399 527.636 3.63999 523.988 3.63999H481.076C477.428 3.63999 474.74 4.50399 473.012 6.23199C471.476 7.768 470.708 10.36 470.708 14.008V61.24C470.708 63.16 470.612 65.176 470.42 67.288C470.228 69.4 469.46 71.416 468.116 73.336L454.868 94.072C453.908 95.8 452.852 97.048 451.7 97.816C450.74 98.584 449.492 98.968 447.956 98.968H445.076C443.54 98.968 442.196 98.584 441.044 97.816C440.084 97.048 439.124 95.8 438.164 94.072L424.916 73.336C423.572 71.416 422.804 69.4 422.612 67.288C422.42 65.176 422.324 63.16 422.324 61.24V14.008C422.324 10.36 421.46 7.768 419.732 6.23199C418.196 4.50399 415.604 3.63999 411.956 3.63999H367.604C363.956 3.63999 361.268 4.50399 359.54 6.23199C358.004 7.768 357.236 10.36 357.236 14.008V69.304C357.236 78.136 357.908 84.76 359.252 89.176C360.788 93.592 363.764 98.776 368.18 104.728L412.244 163.768V200.632C412.244 204.28 413.012 206.968 414.548 208.696C416.276 210.232 418.964 211 422.612 211H469.268ZM449.396 135.832H447.38V185.08H444.5V135.832H441.62C437.396 135.832 433.556 134.872 430.1 132.952C426.836 131.032 423.668 127.96 420.596 123.736L392.66 84.856C390.548 81.976 389.3 78.616 388.916 74.776C388.532 70.936 388.34 66.904 388.34 62.68V29.56H391.22V62.68C391.22 66.712 391.412 70.552 391.796 74.2C392.18 77.656 393.332 80.824 395.252 83.704L423.188 122.584C425.684 126.424 428.564 129.112 431.828 130.648C435.092 132.184 438.356 132.952 441.62 132.952H449.396C453.044 132.952 456.308 132.184 459.188 130.648C462.26 128.92 465.236 126.232 468.116 122.584L496.916 83.704C498.836 81.208 499.988 78.136 500.372 74.488C500.756 70.648 500.948 66.712 500.948 62.68V29.56H503.828V62.68C503.828 66.904 503.636 70.936 503.252 74.776C503.06 78.424 501.812 81.784 499.508 84.856L470.708 123.736C467.636 127.96 464.372 131.032 460.916 132.952C457.652 134.872 453.812 135.832 449.396 135.832ZM608.915 245.272H550.739C546.131 245.272 542.771 244.216 540.659 242.104C538.547 239.992 537.491 236.632 537.491 232.024V173.56C537.491 171.064 537.779 168.952 538.355 167.224C539.123 165.304 540.083 163.864 541.235 162.904L578.675 131.512C579.635 130.744 580.883 130.168 582.419 129.784C583.955 129.208 585.779 128.92 587.891 128.92H646.067C650.675 128.92 654.035 129.976 656.147 132.088C658.259 134.008 659.315 137.368 659.315 142.168V200.632C659.315 203.128 658.931 205.24 658.163 206.968C657.587 208.696 656.627 210.136 655.283 211.288L617.843 242.392C617.075 243.16 615.827 243.832 614.099 244.408C612.563 244.984 610.835 245.272 608.915 245.272ZM646.067 211C649.715 211 652.307 210.232 653.843 208.696C655.571 206.968 656.435 204.28 656.435 200.632V142.168C656.435 138.52 655.571 135.928 653.843 134.392C652.307 132.664 649.715 131.8 646.067 131.8H587.891C584.243 131.8 581.555 132.664 579.827 134.392C578.291 135.928 577.523 138.52 577.523 142.168V200.632C577.523 204.28 578.291 206.968 579.827 208.696C581.555 210.232 584.243 211 587.891 211H646.067ZM615.539 185.08V157.72H618.419V185.08H615.539ZM812.351 245.272H689.663C685.055 245.272 681.695 244.216 679.583 242.104C677.471 239.992 676.415 236.632 676.415 232.024V197.752C676.415 195.256 676.703 193.144 677.279 191.416C678.047 189.688 679.103 188.248 680.447 187.096L715.295 157.72V93.496H689.663C685.055 93.496 681.695 92.44 679.583 90.328C677.471 88.216 676.415 84.856 676.415 80.248V45.4C676.415 42.904 676.703 40.792 677.279 39.064C678.047 37.336 679.103 35.896 680.447 34.744L717.599 3.352C718.559 2.58399 719.807 2.00799 721.343 1.62398C723.071 1.04799 724.895 0.759995 726.815 0.759995H849.503C854.111 0.759995 857.471 1.81599 859.583 3.92799C861.695 6.04 862.751 9.4 862.751 14.008V48.856C862.751 51.352 862.367 53.464 861.599 55.192C861.023 56.92 860.063 58.36 858.719 59.512L824.447 88.312V153.112H849.503C854.111 153.112 857.471 154.168 859.583 156.28C861.695 158.392 862.751 161.752 862.751 166.36V200.632C862.751 203.128 862.367 205.24 861.599 206.968C861.023 208.696 860.063 210.136 858.719 211.288L821.279 242.392C820.51 243.16 819.263 243.832 817.535 244.408C815.999 244.984 814.271 245.272 812.351 245.272ZM726.815 211H849.503C853.151 211 855.743 210.232 857.279 208.696C859.007 206.968 859.871 204.28 859.871 200.632V166.36C859.871 162.712 859.007 160.12 857.279 158.584C855.743 156.856 853.151 155.992 849.503 155.992H821.567V59.224H849.503C853.151 59.224 855.743 58.456 857.279 56.92C859.007 55.192 859.871 52.504 859.871 48.856V14.008C859.871 10.36 859.007 7.768 857.279 6.23199C855.743 4.50399 853.151 3.63999 849.503 3.63999H726.815C723.167 3.63999 720.479 4.50399 718.751 6.23199C717.215 7.768 716.447 10.36 716.447 14.008V48.856C716.447 52.504 717.215 55.192 718.751 56.92C720.479 58.456 723.167 59.224 726.815 59.224H755.327V155.992H726.815C723.167 155.992 720.479 156.856 718.751 158.584C717.215 160.12 716.447 162.712 716.447 166.36V200.632C716.447 204.28 717.215 206.968 718.751 208.696C720.479 210.232 723.167 211 726.815 211ZM833.951 185.08H742.367V182.2H787.007V32.44H742.367V29.56H833.951V32.44H789.887V182.2H833.951V185.08ZM951.477 245.272H893.301C888.693 245.272 885.333 244.216 883.221 242.104C881.109 239.992 880.053 236.632 880.053 232.024V173.56C880.053 171.064 880.341 168.952 880.917 167.224C881.685 165.304 882.645 163.864 883.797 162.904L921.237 131.512C922.197 130.744 923.445 130.168 924.981 129.784C926.517 129.208 928.341 128.92 930.453 128.92H988.629C993.237 128.92 996.597 129.976 998.709 132.088C1000.82 134.008 1001.88 137.368 1001.88 142.168V200.632C1001.88 203.128 1001.49 205.24 1000.73 206.968C1000.15 208.696 999.189 210.136 997.845 211.288L960.405 242.392C959.637 243.16 958.389 243.832 956.661 244.408C955.125 244.984 953.397 245.272 951.477 245.272ZM988.629 211C992.277 211 994.869 210.232 996.405 208.696C998.133 206.968 998.997 204.28 998.997 200.632V142.168C998.997 138.52 998.133 135.928 996.405 134.392C994.869 132.664 992.277 131.8 988.629 131.8H930.453C926.805 131.8 924.117 132.664 922.389 134.392C920.853 135.928 920.085 138.52 920.085 142.168V200.632C920.085 204.28 920.853 206.968 922.389 208.696C924.117 210.232 926.805 211 930.453 211H988.629ZM958.101 185.08V157.72H960.981V185.08H958.101Z"/>
</svg>
