<svg viewBox="0 0 821 214" fill="none" xmlns="http://www.w3.org/2000/svg">
<path fill="currentcolor" d="M14.24 213.88C9.632 213.88 6.272 212.824 4.16 210.712C2.048 208.6 0.992001 205.24 0.992001 200.632V14.008C0.992001 9.4 2.048 6.04 4.16 3.92799C6.272 1.81599 9.632 0.759995 14.24 0.759995H142.688C147.296 0.759995 150.656 1.81599 152.768 3.92799C154.88 6.04 155.936 9.4 155.936 14.008V48.28C155.936 52.888 154.88 56.248 152.768 58.36C150.656 60.472 147.296 61.528 142.688 61.528H72.128V85.72H119.36C123.968 85.72 127.328 86.776 129.44 88.888C131.552 91 132.608 94.36 132.608 98.968V133.528C132.608 138.136 131.552 141.496 129.44 143.608C127.328 145.72 123.968 146.776 119.36 146.776H72.128V200.632C72.128 205.24 71.072 208.6 68.96 210.712C66.848 212.824 63.488 213.88 58.88 213.88H14.24ZM58.88 211C62.528 211 65.12 210.232 66.656 208.696C68.384 206.968 69.248 204.28 69.248 200.632V143.896H119.36C123.008 143.896 125.6 143.128 127.136 141.592C128.864 139.864 129.728 137.176 129.728 133.528V98.968C129.728 95.32 128.864 92.728 127.136 91.192C125.6 89.464 123.008 88.6 119.36 88.6H69.248V58.648H142.688C146.336 58.648 148.928 57.88 150.464 56.344C152.192 54.616 153.056 51.928 153.056 48.28V14.008C153.056 10.36 152.192 7.768 150.464 6.23199C148.928 4.50399 146.336 3.63999 142.688 3.63999H14.24C10.592 3.63999 7.904 4.50399 6.176 6.23199C4.64 7.768 3.872 10.36 3.872 14.008V200.632C3.872 204.28 4.64 206.968 6.176 208.696C7.904 210.232 10.592 211 14.24 211H58.88ZM35.264 185.08V29.56H127.136V32.44H38.144V114.808H103.808V117.688H38.144V185.08H35.264ZM250.945 200.632C250.945 205.24 249.889 208.6 247.777 210.712C245.665 212.824 242.305 213.88 237.697 213.88H179.521C174.913 213.88 171.553 212.824 169.441 210.712C167.329 208.6 166.273 205.24 166.273 200.632V142.168C166.273 137.368 167.329 134.008 169.441 132.088C171.553 129.976 174.913 128.92 179.521 128.92H237.697C242.305 128.92 245.665 129.976 247.777 132.088C249.889 134.008 250.945 137.368 250.945 142.168V200.632ZM237.697 211C241.345 211 243.937 210.232 245.473 208.696C247.201 206.968 248.065 204.28 248.065 200.632V142.168C248.065 138.52 247.201 135.928 245.473 134.392C243.937 132.664 241.345 131.8 237.697 131.8H179.521C175.873 131.8 173.185 132.664 171.457 134.392C169.921 135.928 169.153 138.52 169.153 142.168V200.632C169.153 204.28 169.921 206.968 171.457 208.696C173.185 210.232 175.873 211 179.521 211H237.697ZM207.169 185.08V157.72H210.049V185.08H207.169ZM327.836 213.88C323.036 213.88 319.58 212.824 317.468 210.712C315.548 208.6 314.588 205.24 314.588 200.632V164.632L271.1 106.456C266.492 100.312 263.42 94.936 261.884 90.328C260.348 85.72 259.58 78.712 259.58 69.304V14.008C259.58 9.4 260.636 6.04 262.748 3.92799C264.86 1.81599 268.22 0.759995 272.828 0.759995H317.18C321.788 0.759995 325.148 1.81599 327.26 3.92799C329.372 6.04 330.428 9.4 330.428 14.008V61.24C330.428 62.968 330.524 64.696 330.716 66.424C330.908 68.152 331.484 69.976 332.444 71.896L345.98 92.632C346.556 93.784 347.132 94.648 347.708 95.224C348.476 95.8 349.34 96.088 350.3 96.088H353.18C354.14 96.088 354.908 95.8 355.484 95.224C356.252 94.648 357.02 93.784 357.788 92.632L371.036 71.896C371.996 69.976 372.572 68.152 372.764 66.424C372.956 64.696 373.052 62.968 373.052 61.24V14.008C373.052 9.4 374.108 6.04 376.22 3.92799C378.332 1.81599 381.692 0.759995 386.3 0.759995H429.212C433.82 0.759995 437.18 1.81599 439.292 3.92799C441.404 6.04 442.46 9.4 442.46 14.008V69.304C442.46 78.712 441.692 85.72 440.156 90.328C438.62 94.936 435.548 100.312 430.94 106.456L387.74 164.92V200.632C387.74 205.24 386.684 208.6 384.572 210.712C382.46 212.824 379.1 213.88 374.492 213.88H327.836ZM374.492 211C378.14 211 380.732 210.232 382.268 208.696C383.996 206.968 384.86 204.28 384.86 200.632V164.056L428.636 104.728C432.86 98.776 435.74 93.592 437.276 89.176C438.812 84.76 439.58 78.136 439.58 69.304V14.008C439.58 10.36 438.716 7.768 436.988 6.23199C435.452 4.50399 432.86 3.63999 429.212 3.63999H386.3C382.652 3.63999 379.964 4.50399 378.236 6.23199C376.7 7.768 375.932 10.36 375.932 14.008V61.24C375.932 63.16 375.836 65.176 375.644 67.288C375.452 69.4 374.684 71.416 373.34 73.336L360.092 94.072C359.132 95.8 358.076 97.048 356.924 97.816C355.964 98.584 354.716 98.968 353.18 98.968H350.3C348.764 98.968 347.42 98.584 346.268 97.816C345.308 97.048 344.348 95.8 343.388 94.072L330.14 73.336C328.796 71.416 328.028 69.4 327.836 67.288C327.644 65.176 327.548 63.16 327.548 61.24V14.008C327.548 10.36 326.684 7.768 324.956 6.23199C323.42 4.50399 320.828 3.63999 317.18 3.63999H272.828C269.18 3.63999 266.492 4.50399 264.764 6.23199C263.228 7.768 262.46 10.36 262.46 14.008V69.304C262.46 78.136 263.132 84.76 264.476 89.176C266.012 93.592 268.988 98.776 273.404 104.728L317.468 163.768V200.632C317.468 204.28 318.236 206.968 319.772 208.696C321.5 210.232 324.188 211 327.836 211H374.492ZM354.62 135.832H352.604V185.08H349.724V135.832H346.844C342.62 135.832 338.78 134.872 335.324 132.952C332.06 131.032 328.892 127.96 325.82 123.736L297.884 84.856C295.772 81.976 294.524 78.616 294.14 74.776C293.756 70.936 293.564 66.904 293.564 62.68V29.56H296.444V62.68C296.444 66.712 296.636 70.552 297.02 74.2C297.404 77.656 298.556 80.824 300.476 83.704L328.412 122.584C330.908 126.424 333.788 129.112 337.052 130.648C340.316 132.184 343.58 132.952 346.844 132.952H354.62C358.268 132.952 361.532 132.184 364.412 130.648C367.484 128.92 370.46 126.232 373.34 122.584L402.14 83.704C404.06 81.208 405.212 78.136 405.596 74.488C405.98 70.648 406.172 66.712 406.172 62.68V29.56H409.052V62.68C409.052 66.904 408.86 70.936 408.476 74.776C408.284 78.424 407.036 81.784 404.732 84.856L375.932 123.736C372.86 127.96 369.596 131.032 366.14 132.952C362.876 134.872 359.036 135.832 354.62 135.832ZM535.851 200.632C535.851 205.24 534.795 208.6 532.683 210.712C530.571 212.824 527.211 213.88 522.603 213.88H464.427C459.819 213.88 456.459 212.824 454.347 210.712C452.235 208.6 451.179 205.24 451.179 200.632V142.168C451.179 137.368 452.235 134.008 454.347 132.088C456.459 129.976 459.819 128.92 464.427 128.92H522.603C527.211 128.92 530.571 129.976 532.683 132.088C534.795 134.008 535.851 137.368 535.851 142.168V200.632ZM522.603 211C526.251 211 528.843 210.232 530.379 208.696C532.107 206.968 532.971 204.28 532.971 200.632V142.168C532.971 138.52 532.107 135.928 530.379 134.392C528.843 132.664 526.251 131.8 522.603 131.8H464.427C460.779 131.8 458.091 132.664 456.363 134.392C454.827 135.928 454.059 138.52 454.059 142.168V200.632C454.059 204.28 454.827 206.968 456.363 208.696C458.091 210.232 460.779 211 464.427 211H522.603ZM492.075 185.08V157.72H494.955V185.08H492.075ZM574.382 213.88C569.774 213.88 566.414 212.824 564.302 210.712C562.19 208.6 561.134 205.24 561.134 200.632V166.36C561.134 161.752 562.19 158.392 564.302 156.28C566.414 154.168 569.774 153.112 574.382 153.112H600.014V62.104H574.382C569.774 62.104 566.414 61.048 564.302 58.936C562.19 56.824 561.134 53.464 561.134 48.856V14.008C561.134 9.4 562.19 6.04 564.302 3.92799C566.414 1.81599 569.774 0.759995 574.382 0.759995H697.07C701.678 0.759995 705.038 1.81599 707.15 3.92799C709.262 6.04 710.318 9.4 710.318 14.008V48.856C710.318 53.464 709.262 56.824 707.15 58.936C705.038 61.048 701.678 62.104 697.07 62.104H672.014V153.112H697.07C701.678 153.112 705.038 154.168 707.15 156.28C709.262 158.392 710.318 161.752 710.318 166.36V200.632C710.318 205.24 709.262 208.6 707.15 210.712C705.038 212.824 701.678 213.88 697.07 213.88H574.382ZM574.382 211H697.07C700.718 211 703.31 210.232 704.846 208.696C706.574 206.968 707.438 204.28 707.438 200.632V166.36C707.438 162.712 706.574 160.12 704.846 158.584C703.31 156.856 700.718 155.992 697.07 155.992H669.134V59.224H697.07C700.718 59.224 703.31 58.456 704.846 56.92C706.574 55.192 707.438 52.504 707.438 48.856V14.008C707.438 10.36 706.574 7.768 704.846 6.23199C703.31 4.50399 700.718 3.63999 697.07 3.63999H574.382C570.734 3.63999 568.046 4.50399 566.318 6.23199C564.782 7.768 564.014 10.36 564.014 14.008V48.856C564.014 52.504 564.782 55.192 566.318 56.92C568.046 58.456 570.734 59.224 574.382 59.224H602.894V155.992H574.382C570.734 155.992 568.046 156.856 566.318 158.584C564.782 160.12 564.014 162.712 564.014 166.36V200.632C564.014 204.28 564.782 206.968 566.318 208.696C568.046 210.232 570.734 211 574.382 211ZM681.518 185.08H589.934V182.2H634.574V32.44H589.934V29.56H681.518V32.44H637.454V182.2H681.518V185.08ZM820.757 200.632C820.757 205.24 819.701 208.6 817.589 210.712C815.477 212.824 812.117 213.88 807.509 213.88H749.333C744.725 213.88 741.365 212.824 739.253 210.712C737.141 208.6 736.085 205.24 736.085 200.632V142.168C736.085 137.368 737.141 134.008 739.253 132.088C741.365 129.976 744.725 128.92 749.333 128.92H807.509C812.117 128.92 815.477 129.976 817.589 132.088C819.701 134.008 820.757 137.368 820.757 142.168V200.632ZM807.509 211C811.157 211 813.749 210.232 815.285 208.696C817.013 206.968 817.877 204.28 817.877 200.632V142.168C817.877 138.52 817.013 135.928 815.285 134.392C813.749 132.664 811.157 131.8 807.509 131.8H749.333C745.685 131.8 742.997 132.664 741.269 134.392C739.733 135.928 738.965 138.52 738.965 142.168V200.632C738.965 204.28 739.733 206.968 741.269 208.696C742.997 210.232 745.685 211 749.333 211H807.509ZM776.981 185.08V157.72H779.861V185.08H776.981Z"/>
</svg>
