<svg viewBox="0 0 815 208" fill="none" xmlns="http://www.w3.org/2000/svg">
<path fill="currentcolor" d="M55.88 208H11.24C7.592 208 4.904 207.232 3.176 205.696C1.64 203.968 0.872002 201.28 0.872002 197.632V11.008C0.872002 7.36 1.64 4.768 3.176 3.23199C4.904 1.50399 7.592 0.639992 11.24 0.639992H139.688C143.336 0.639992 145.928 1.50399 147.464 3.23199C149.192 4.768 150.056 7.36 150.056 11.008V45.28C150.056 48.928 149.192 51.616 147.464 53.344C145.928 54.88 143.336 55.648 139.688 55.648H66.248V85.6H116.36C120.008 85.6 122.6 86.464 124.136 88.192C125.864 89.728 126.728 92.32 126.728 95.968V130.528C126.728 134.176 125.864 136.864 124.136 138.592C122.6 140.128 120.008 140.896 116.36 140.896H66.248V197.632C66.248 201.28 65.384 203.968 63.656 205.696C62.12 207.232 59.528 208 55.88 208ZM32.264 182.08H35.144V114.688H100.808V111.808H35.144V29.44H124.136V26.56H32.264V182.08ZM234.697 208H176.521C172.873 208 170.185 207.232 168.457 205.696C166.921 203.968 166.153 201.28 166.153 197.632V139.168C166.153 135.52 166.921 132.928 168.457 131.392C170.185 129.664 172.873 128.8 176.521 128.8H234.697C238.345 128.8 240.937 129.664 242.473 131.392C244.201 132.928 245.065 135.52 245.065 139.168V197.632C245.065 201.28 244.201 203.968 242.473 205.696C240.937 207.232 238.345 208 234.697 208ZM204.169 182.08H207.049V154.72H204.169V182.08ZM371.492 208H324.836C321.188 208 318.5 207.232 316.772 205.696C315.236 203.968 314.468 201.28 314.468 197.632V160.768L270.404 101.728C265.988 95.776 263.012 90.592 261.476 86.176C260.132 81.76 259.46 75.136 259.46 66.304V11.008C259.46 7.36 260.228 4.768 261.764 3.23199C263.492 1.50399 266.18 0.639992 269.828 0.639992H314.18C317.828 0.639992 320.42 1.50399 321.956 3.23199C323.684 4.768 324.548 7.36 324.548 11.008V58.24C324.548 60.16 324.644 62.176 324.836 64.288C325.028 66.4 325.796 68.416 327.14 70.336L340.388 91.072C341.348 92.8 342.308 94.048 343.268 94.816C344.42 95.584 345.764 95.968 347.3 95.968H350.18C351.716 95.968 352.964 95.584 353.924 94.816C355.076 94.048 356.132 92.8 357.092 91.072L370.34 70.336C371.684 68.416 372.452 66.4 372.644 64.288C372.836 62.176 372.932 60.16 372.932 58.24V11.008C372.932 7.36 373.7 4.768 375.236 3.23199C376.964 1.50399 379.652 0.639992 383.3 0.639992H426.212C429.86 0.639992 432.452 1.50399 433.988 3.23199C435.716 4.768 436.58 7.36 436.58 11.008V66.304C436.58 75.136 435.812 81.76 434.276 86.176C432.74 90.592 429.86 95.776 425.636 101.728L381.86 161.056V197.632C381.86 201.28 380.996 203.968 379.268 205.696C377.732 207.232 375.14 208 371.492 208ZM351.62 132.832C356.036 132.832 359.876 131.872 363.14 129.952C366.596 128.032 369.86 124.96 372.932 120.736L401.732 81.856C404.036 78.784 405.284 75.424 405.476 71.776C405.86 67.936 406.052 63.904 406.052 59.68V26.56H403.172V59.68C403.172 63.712 402.98 67.648 402.596 71.488C402.212 75.136 401.06 78.208 399.14 80.704L370.34 119.584C367.46 123.232 364.484 125.92 361.412 127.648C358.532 129.184 355.268 129.952 351.62 129.952H343.844C340.58 129.952 337.316 129.184 334.052 127.648C330.788 126.112 327.908 123.424 325.412 119.584L297.476 80.704C295.556 77.824 294.404 74.656 294.02 71.2C293.636 67.552 293.444 63.712 293.444 59.68V26.56H290.564V59.68C290.564 63.904 290.756 67.936 291.14 71.776C291.524 75.616 292.772 78.976 294.884 81.856L322.82 120.736C325.892 124.96 329.06 128.032 332.324 129.952C335.78 131.872 339.62 132.832 343.844 132.832H346.724V182.08H349.604V132.832H351.62ZM519.603 208H461.427C457.779 208 455.091 207.232 453.363 205.696C451.827 203.968 451.059 201.28 451.059 197.632V139.168C451.059 135.52 451.827 132.928 453.363 131.392C455.091 129.664 457.779 128.8 461.427 128.8H519.603C523.251 128.8 525.843 129.664 527.379 131.392C529.107 132.928 529.971 135.52 529.971 139.168V197.632C529.971 201.28 529.107 203.968 527.379 205.696C525.843 207.232 523.251 208 519.603 208ZM489.075 182.08H491.955V154.72H489.075V182.08ZM571.382 208C567.734 208 565.046 207.232 563.318 205.696C561.782 203.968 561.014 201.28 561.014 197.632V163.36C561.014 159.712 561.782 157.12 563.318 155.584C565.046 153.856 567.734 152.992 571.382 152.992H599.894V56.224H571.382C567.734 56.224 565.046 55.456 563.318 53.92C561.782 52.192 561.014 49.504 561.014 45.856V11.008C561.014 7.36 561.782 4.768 563.318 3.23199C565.046 1.50399 567.734 0.639992 571.382 0.639992H694.07C697.718 0.639992 700.31 1.50399 701.846 3.23199C703.574 4.768 704.438 7.36 704.438 11.008V45.856C704.438 49.504 703.574 52.192 701.846 53.92C700.31 55.456 697.718 56.224 694.07 56.224H666.134V152.992H694.07C697.718 152.992 700.31 153.856 701.846 155.584C703.574 157.12 704.438 159.712 704.438 163.36V197.632C704.438 201.28 703.574 203.968 701.846 205.696C700.31 207.232 697.718 208 694.07 208H571.382ZM678.518 182.08V179.2H634.454V29.44H678.518V26.56H586.934V29.44H631.574V179.2H586.934V182.08H678.518ZM804.509 208H746.333C742.685 208 739.997 207.232 738.269 205.696C736.733 203.968 735.965 201.28 735.965 197.632V139.168C735.965 135.52 736.733 132.928 738.269 131.392C739.997 129.664 742.685 128.8 746.333 128.8H804.509C808.157 128.8 810.749 129.664 812.285 131.392C814.013 132.928 814.877 135.52 814.877 139.168V197.632C814.877 201.28 814.013 203.968 812.285 205.696C810.749 207.232 808.157 208 804.509 208ZM773.981 182.08H776.861V154.72H773.981V182.08Z"/>
</svg>
