<svg viewBox="0 0 745 157" fill="none" xmlns="http://www.w3.org/2000/svg">
<path fill="currentcolor" d="M0.264001 156.08V0.559984H92.136V3.44H3.144V85.808H68.808V88.688H3.144V156.08H0.264001ZM172.169 156.08V128.72H175.049V156.08H172.169ZM319.62 106.832H317.604V156.08H314.724V106.832H311.844C307.62 106.832 303.78 105.872 300.324 103.952C297.06 102.032 293.892 98.96 290.82 94.736L262.884 55.856C260.772 52.976 259.524 49.616 259.14 45.776C258.756 41.936 258.564 37.904 258.564 33.68V0.559984H261.444V33.68C261.444 37.712 261.636 41.552 262.02 45.2C262.404 48.656 263.556 51.824 265.476 54.704L293.412 93.584C295.908 97.424 298.788 100.112 302.052 101.648C305.316 103.184 308.58 103.952 311.844 103.952H319.62C323.268 103.952 326.532 103.184 329.412 101.648C332.484 99.92 335.46 97.232 338.34 93.584L367.14 54.704C369.06 52.208 370.212 49.136 370.596 45.488C370.98 41.648 371.172 37.712 371.172 33.68V0.559984H374.052V33.68C374.052 37.904 373.86 41.936 373.476 45.776C373.284 49.424 372.036 52.784 369.732 55.856L340.932 94.736C337.86 98.96 334.596 102.032 331.14 103.952C327.876 105.872 324.036 106.832 319.62 106.832ZM457.075 156.08V128.72H459.955V156.08H457.075ZM646.518 156.08H554.934V153.2H599.574V3.44H554.934V0.559984H646.518V3.44H602.454V153.2H646.518V156.08ZM741.981 156.08V128.72H744.861V156.08H741.981Z"/>
</svg>
