<svg viewBox="0 0 622 246" fill="none" xmlns="http://www.w3.org/2000/svg">
<path fill="currentcolor" d="M58.848 245.272H14.208C9.6 245.272 6.24 244.216 4.128 242.104C2.016 239.992 0.960001 236.632 0.960001 232.024V45.4C0.960001 42.904 1.248 40.792 1.824 39.064C2.592 37.336 3.648 35.896 4.992 34.744L42.144 3.352C43.104 2.58399 44.352 2.00799 45.888 1.62398C47.616 1.04799 49.44 0.759995 51.36 0.759995H179.808C184.416 0.759995 187.776 1.81599 189.888 3.92799C192 6.04 193.056 9.4 193.056 14.008V48.28C193.056 50.776 192.672 52.888 191.904 54.616C191.328 56.344 190.368 57.784 189.024 58.936L156.768 85.72C161.184 85.72 164.448 86.776 166.56 88.888C168.672 91 169.728 94.36 169.728 98.968V133.528C169.728 136.024 169.344 138.136 168.576 139.864C168 141.592 167.04 143.032 165.696 144.184L128.256 175.288C127.488 176.056 126.24 176.728 124.512 177.304C122.976 177.88 121.248 178.168 119.328 178.168H109.248V200.632C109.248 203.128 108.864 205.24 108.096 206.968C107.52 208.696 106.56 210.136 105.216 211.288L67.776 242.392C67.008 243.16 65.76 243.832 64.032 244.408C62.496 244.984 60.768 245.272 58.848 245.272ZM96 211C99.648 211 102.24 210.232 103.776 208.696C105.504 206.968 106.368 204.28 106.368 200.632V143.896H156.48C160.128 143.896 162.72 143.128 164.256 141.592C165.984 139.864 166.848 137.176 166.848 133.528V98.968C166.848 95.32 165.984 92.728 164.256 91.192C162.72 89.464 160.128 88.6 156.48 88.6H106.368V58.648H179.808C183.456 58.648 186.048 57.88 187.584 56.344C189.312 54.616 190.176 51.928 190.176 48.28V14.008C190.176 10.36 189.312 7.768 187.584 6.23199C186.048 4.50399 183.456 3.63999 179.808 3.63999H51.36C47.712 3.63999 45.024 4.50399 43.296 6.23199C41.76 7.768 40.992 10.36 40.992 14.008V200.632C40.992 204.28 41.76 206.968 43.296 208.696C45.024 210.232 47.712 211 51.36 211H96ZM72.384 185.08V29.56H164.256V32.44H75.264V114.808H140.928V117.688H75.264V185.08H72.384ZM315.679 245.272H269.023C264.223 245.272 260.767 244.216 258.655 242.104C256.735 239.992 255.775 236.632 255.775 232.024V196.024L212.287 137.848C207.679 131.704 204.607 126.328 203.071 121.72C201.535 117.112 200.767 110.104 200.767 100.696V45.4C200.767 42.904 201.055 40.792 201.631 39.064C202.399 37.336 203.455 35.896 204.799 34.744L241.951 3.352C242.911 2.58399 244.159 2.00799 245.695 1.62398C247.423 1.04799 249.247 0.759995 251.167 0.759995H295.519C300.127 0.759995 303.487 1.81599 305.599 3.92799C307.711 6.04 308.767 9.4 308.767 14.008V61.24C308.767 62.968 308.863 64.696 309.055 66.424C309.247 68.152 309.823 69.976 310.783 71.896L314.239 76.792V45.4C314.239 42.904 314.527 40.792 315.103 39.064C315.871 37.336 316.927 35.896 318.271 34.744L355.423 3.352C356.383 2.58399 357.631 2.00799 359.167 1.62398C360.895 1.04799 362.719 0.759995 364.639 0.759995H407.551C412.159 0.759995 415.519 1.81599 417.631 3.92799C419.743 6.04 420.799 9.4 420.799 14.008V69.304C420.799 78.712 420.031 85.72 418.495 90.328C416.959 94.936 413.887 100.312 409.279 106.456L366.079 164.92V200.632C366.079 203.128 365.695 205.24 364.927 206.968C364.351 208.696 363.391 210.136 362.047 211.288L324.607 242.392C323.839 243.16 322.591 243.832 320.863 244.408C319.327 244.984 317.599 245.272 315.679 245.272ZM352.831 211C356.479 211 359.071 210.232 360.607 208.696C362.335 206.968 363.199 204.28 363.199 200.632V164.056L406.975 104.728C411.199 98.776 414.079 93.592 415.615 89.176C417.151 84.76 417.919 78.136 417.919 69.304V14.008C417.919 10.36 417.055 7.768 415.327 6.23199C413.791 4.50399 411.199 3.63999 407.551 3.63999H364.639C360.991 3.63999 358.303 4.50399 356.575 6.23199C355.039 7.768 354.271 10.36 354.271 14.008V61.24C354.271 63.16 354.175 65.176 353.983 67.288C353.791 69.4 353.023 71.416 351.679 73.336L338.431 94.072C337.471 95.8 336.415 97.048 335.263 97.816C334.303 98.584 333.055 98.968 331.519 98.968H328.639C327.103 98.968 325.759 98.584 324.607 97.816C323.647 97.048 322.687 95.8 321.727 94.072L308.479 73.336C307.135 71.416 306.367 69.4 306.175 67.288C305.983 65.176 305.887 63.16 305.887 61.24V14.008C305.887 10.36 305.023 7.768 303.295 6.23199C301.759 4.50399 299.167 3.63999 295.519 3.63999H251.167C247.519 3.63999 244.831 4.50399 243.103 6.23199C241.567 7.768 240.799 10.36 240.799 14.008V69.304C240.799 78.136 241.471 84.76 242.815 89.176C244.351 93.592 247.327 98.776 251.743 104.728L295.807 163.768V200.632C295.807 204.28 296.575 206.968 298.111 208.696C299.839 210.232 302.527 211 306.175 211H352.831ZM332.959 135.832H330.943V185.08H328.063V135.832H325.183C320.959 135.832 317.119 134.872 313.663 132.952C310.399 131.032 307.231 127.96 304.159 123.736L276.223 84.856C274.111 81.976 272.863 78.616 272.479 74.776C272.095 70.936 271.903 66.904 271.903 62.68V29.56H274.783V62.68C274.783 66.712 274.975 70.552 275.359 74.2C275.743 77.656 276.895 80.824 278.815 83.704L306.751 122.584C309.247 126.424 312.127 129.112 315.391 130.648C318.655 132.184 321.919 132.952 325.183 132.952H332.959C336.607 132.952 339.871 132.184 342.751 130.648C345.823 128.92 348.799 126.232 351.679 122.584L380.479 83.704C382.399 81.208 383.551 78.136 383.935 74.488C384.319 70.648 384.511 66.712 384.511 62.68V29.56H387.391V62.68C387.391 66.904 387.199 70.936 386.815 74.776C386.623 78.424 385.375 81.784 383.071 84.856L354.271 123.736C351.199 127.96 347.935 131.032 344.479 132.952C341.215 134.872 337.375 135.832 332.959 135.832ZM570.757 245.272H448.069C443.461 245.272 440.101 244.216 437.989 242.104C435.877 239.992 434.821 236.632 434.821 232.024V197.752C434.821 195.256 435.109 193.144 435.685 191.416C436.453 189.688 437.509 188.248 438.853 187.096L473.701 157.72V93.496H448.069C443.461 93.496 440.101 92.44 437.989 90.328C435.877 88.216 434.821 84.856 434.821 80.248V45.4C434.821 42.904 435.109 40.792 435.685 39.064C436.453 37.336 437.509 35.896 438.853 34.744L476.005 3.352C476.965 2.58399 478.213 2.00799 479.749 1.62398C481.477 1.04799 483.301 0.759995 485.221 0.759995H607.909C612.517 0.759995 615.877 1.81599 617.989 3.92799C620.101 6.04 621.157 9.4 621.157 14.008V48.856C621.157 51.352 620.773 53.464 620.005 55.192C619.429 56.92 618.469 58.36 617.125 59.512L582.853 88.312V153.112H607.909C612.517 153.112 615.877 154.168 617.989 156.28C620.101 158.392 621.157 161.752 621.157 166.36V200.632C621.157 203.128 620.773 205.24 620.005 206.968C619.429 208.696 618.469 210.136 617.125 211.288L579.685 242.392C578.917 243.16 577.669 243.832 575.941 244.408C574.405 244.984 572.677 245.272 570.757 245.272ZM485.221 211H607.909C611.557 211 614.149 210.232 615.685 208.696C617.413 206.968 618.277 204.28 618.277 200.632V166.36C618.277 162.712 617.413 160.12 615.685 158.584C614.149 156.856 611.557 155.992 607.909 155.992H579.973V59.224H607.909C611.557 59.224 614.149 58.456 615.685 56.92C617.413 55.192 618.277 52.504 618.277 48.856V14.008C618.277 10.36 617.413 7.768 615.685 6.23199C614.149 4.50399 611.557 3.63999 607.909 3.63999H485.221C481.573 3.63999 478.885 4.50399 477.157 6.23199C475.621 7.768 474.853 10.36 474.853 14.008V48.856C474.853 52.504 475.621 55.192 477.157 56.92C478.885 58.456 481.573 59.224 485.221 59.224H513.733V155.992H485.221C481.573 155.992 478.885 156.856 477.157 158.584C475.621 160.12 474.853 162.712 474.853 166.36V200.632C474.853 204.28 475.621 206.968 477.157 208.696C478.885 210.232 481.573 211 485.221 211ZM592.357 185.08H500.773V182.2H545.413V32.44H500.773V29.56H592.357V32.44H548.293V182.2H592.357V185.08Z"/>
</svg>
