<svg viewBox="0 0 527 214" fill="none" xmlns="http://www.w3.org/2000/svg">
<path fill="currentcolor" d="M14.24 213.88C9.632 213.88 6.272 212.824 4.16 210.712C2.048 208.6 0.992001 205.24 0.992001 200.632V14.008C0.992001 9.4 2.048 6.04 4.16 3.92799C6.272 1.81599 9.632 0.759995 14.24 0.759995H142.688C147.296 0.759995 150.656 1.81599 152.768 3.92799C154.88 6.04 155.936 9.4 155.936 14.008V48.28C155.936 52.888 154.88 56.248 152.768 58.36C150.656 60.472 147.296 61.528 142.688 61.528H72.128V85.72H119.36C123.968 85.72 127.328 86.776 129.44 88.888C131.552 91 132.608 94.36 132.608 98.968V133.528C132.608 138.136 131.552 141.496 129.44 143.608C127.328 145.72 123.968 146.776 119.36 146.776H72.128V200.632C72.128 205.24 71.072 208.6 68.96 210.712C66.848 212.824 63.488 213.88 58.88 213.88H14.24ZM58.88 211C62.528 211 65.12 210.232 66.656 208.696C68.384 206.968 69.248 204.28 69.248 200.632V143.896H119.36C123.008 143.896 125.6 143.128 127.136 141.592C128.864 139.864 129.728 137.176 129.728 133.528V98.968C129.728 95.32 128.864 92.728 127.136 91.192C125.6 89.464 123.008 88.6 119.36 88.6H69.248V58.648H142.688C146.336 58.648 148.928 57.88 150.464 56.344C152.192 54.616 153.056 51.928 153.056 48.28V14.008C153.056 10.36 152.192 7.768 150.464 6.23199C148.928 4.50399 146.336 3.63999 142.688 3.63999H14.24C10.592 3.63999 7.904 4.50399 6.176 6.23199C4.64 7.768 3.872 10.36 3.872 14.008V200.632C3.872 204.28 4.64 206.968 6.176 208.696C7.904 210.232 10.592 211 14.24 211H58.88ZM35.264 185.08V29.56H127.136V32.44H38.144V114.808H103.808V117.688H38.144V185.08H35.264ZM240.367 213.88C235.567 213.88 232.111 212.824 229.999 210.712C228.079 208.6 227.119 205.24 227.119 200.632V164.632L183.631 106.456C179.023 100.312 175.951 94.936 174.415 90.328C172.879 85.72 172.111 78.712 172.111 69.304V14.008C172.111 9.4 173.167 6.04 175.279 3.92799C177.391 1.81599 180.751 0.759995 185.359 0.759995H229.711C234.319 0.759995 237.679 1.81599 239.791 3.92799C241.903 6.04 242.959 9.4 242.959 14.008V61.24C242.959 62.968 243.055 64.696 243.247 66.424C243.439 68.152 244.015 69.976 244.975 71.896L258.511 92.632C259.087 93.784 259.663 94.648 260.239 95.224C261.007 95.8 261.871 96.088 262.831 96.088H265.711C266.671 96.088 267.439 95.8 268.015 95.224C268.783 94.648 269.551 93.784 270.319 92.632L283.567 71.896C284.527 69.976 285.103 68.152 285.295 66.424C285.487 64.696 285.583 62.968 285.583 61.24V14.008C285.583 9.4 286.639 6.04 288.751 3.92799C290.863 1.81599 294.223 0.759995 298.831 0.759995H341.743C346.351 0.759995 349.711 1.81599 351.823 3.92799C353.935 6.04 354.991 9.4 354.991 14.008V69.304C354.991 78.712 354.223 85.72 352.687 90.328C351.151 94.936 348.079 100.312 343.471 106.456L300.271 164.92V200.632C300.271 205.24 299.215 208.6 297.103 210.712C294.991 212.824 291.631 213.88 287.023 213.88H240.367ZM287.023 211C290.671 211 293.263 210.232 294.799 208.696C296.527 206.968 297.391 204.28 297.391 200.632V164.056L341.167 104.728C345.391 98.776 348.271 93.592 349.807 89.176C351.343 84.76 352.111 78.136 352.111 69.304V14.008C352.111 10.36 351.247 7.768 349.519 6.23199C347.983 4.50399 345.391 3.63999 341.743 3.63999H298.831C295.183 3.63999 292.495 4.50399 290.767 6.23199C289.231 7.768 288.463 10.36 288.463 14.008V61.24C288.463 63.16 288.367 65.176 288.175 67.288C287.983 69.4 287.215 71.416 285.871 73.336L272.623 94.072C271.663 95.8 270.607 97.048 269.455 97.816C268.495 98.584 267.247 98.968 265.711 98.968H262.831C261.295 98.968 259.951 98.584 258.799 97.816C257.839 97.048 256.879 95.8 255.919 94.072L242.671 73.336C241.327 71.416 240.559 69.4 240.367 67.288C240.175 65.176 240.079 63.16 240.079 61.24V14.008C240.079 10.36 239.215 7.768 237.487 6.23199C235.951 4.50399 233.359 3.63999 229.711 3.63999H185.359C181.711 3.63999 179.023 4.50399 177.295 6.23199C175.759 7.768 174.991 10.36 174.991 14.008V69.304C174.991 78.136 175.663 84.76 177.007 89.176C178.543 93.592 181.519 98.776 185.935 104.728L229.999 163.768V200.632C229.999 204.28 230.767 206.968 232.303 208.696C234.031 210.232 236.719 211 240.367 211H287.023ZM267.151 135.832H265.135V185.08H262.255V135.832H259.375C255.151 135.832 251.311 134.872 247.855 132.952C244.591 131.032 241.423 127.96 238.351 123.736L210.415 84.856C208.303 81.976 207.055 78.616 206.671 74.776C206.287 70.936 206.095 66.904 206.095 62.68V29.56H208.975V62.68C208.975 66.712 209.167 70.552 209.551 74.2C209.935 77.656 211.087 80.824 213.007 83.704L240.943 122.584C243.439 126.424 246.319 129.112 249.583 130.648C252.847 132.184 256.111 132.952 259.375 132.952H267.151C270.799 132.952 274.063 132.184 276.943 130.648C280.015 128.92 282.991 126.232 285.871 122.584L314.671 83.704C316.591 81.208 317.743 78.136 318.127 74.488C318.511 70.648 318.703 66.712 318.703 62.68V29.56H321.583V62.68C321.583 66.904 321.391 70.936 321.007 74.776C320.815 78.424 319.567 81.784 317.263 84.856L288.463 123.736C285.391 127.96 282.127 131.032 278.671 132.952C275.407 134.872 271.567 135.832 267.151 135.832ZM390.726 213.88C386.118 213.88 382.758 212.824 380.646 210.712C378.534 208.6 377.478 205.24 377.478 200.632V166.36C377.478 161.752 378.534 158.392 380.646 156.28C382.758 154.168 386.118 153.112 390.726 153.112H416.358V62.104H390.726C386.118 62.104 382.758 61.048 380.646 58.936C378.534 56.824 377.478 53.464 377.478 48.856V14.008C377.478 9.4 378.534 6.04 380.646 3.92799C382.758 1.81599 386.118 0.759995 390.726 0.759995H513.414C518.022 0.759995 521.382 1.81599 523.494 3.92799C525.606 6.04 526.662 9.4 526.662 14.008V48.856C526.662 53.464 525.606 56.824 523.494 58.936C521.382 61.048 518.022 62.104 513.414 62.104H488.358V153.112H513.414C518.022 153.112 521.382 154.168 523.494 156.28C525.606 158.392 526.662 161.752 526.662 166.36V200.632C526.662 205.24 525.606 208.6 523.494 210.712C521.382 212.824 518.022 213.88 513.414 213.88H390.726ZM390.726 211H513.414C517.062 211 519.654 210.232 521.19 208.696C522.918 206.968 523.782 204.28 523.782 200.632V166.36C523.782 162.712 522.918 160.12 521.19 158.584C519.654 156.856 517.062 155.992 513.414 155.992H485.478V59.224H513.414C517.062 59.224 519.654 58.456 521.19 56.92C522.918 55.192 523.782 52.504 523.782 48.856V14.008C523.782 10.36 522.918 7.768 521.19 6.23199C519.654 4.50399 517.062 3.63999 513.414 3.63999H390.726C387.078 3.63999 384.39 4.50399 382.662 6.23199C381.126 7.768 380.358 10.36 380.358 14.008V48.856C380.358 52.504 381.126 55.192 382.662 56.92C384.39 58.456 387.078 59.224 390.726 59.224H419.238V155.992H390.726C387.078 155.992 384.39 156.856 382.662 158.584C381.126 160.12 380.358 162.712 380.358 166.36V200.632C380.358 204.28 381.126 206.968 382.662 208.696C384.39 210.232 387.078 211 390.726 211ZM497.862 185.08H406.278V182.2H450.918V32.44H406.278V29.56H497.862V32.44H453.798V182.2H497.862V185.08Z"/>
</svg>
