<svg viewBox="0 0 521 208" fill="none" xmlns="http://www.w3.org/2000/svg">
<path fill="currentcolor" d="M55.88 208H11.24C7.592 208 4.904 207.232 3.176 205.696C1.64 203.968 0.872002 201.28 0.872002 197.632V11.008C0.872002 7.36 1.64 4.768 3.176 3.23199C4.904 1.50399 7.592 0.639992 11.24 0.639992H139.688C143.336 0.639992 145.928 1.50399 147.464 3.23199C149.192 4.768 150.056 7.36 150.056 11.008V45.28C150.056 48.928 149.192 51.616 147.464 53.344C145.928 54.88 143.336 55.648 139.688 55.648H66.248V85.6H116.36C120.008 85.6 122.6 86.464 124.136 88.192C125.864 89.728 126.728 92.32 126.728 95.968V130.528C126.728 134.176 125.864 136.864 124.136 138.592C122.6 140.128 120.008 140.896 116.36 140.896H66.248V197.632C66.248 201.28 65.384 203.968 63.656 205.696C62.12 207.232 59.528 208 55.88 208ZM32.264 182.08H35.144V114.688H100.808V111.808H35.144V29.44H124.136V26.56H32.264V182.08ZM284.023 208H237.367C233.719 208 231.031 207.232 229.303 205.696C227.767 203.968 226.999 201.28 226.999 197.632V160.768L182.935 101.728C178.519 95.776 175.543 90.592 174.007 86.176C172.663 81.76 171.991 75.136 171.991 66.304V11.008C171.991 7.36 172.759 4.768 174.295 3.23199C176.023 1.50399 178.711 0.639992 182.359 0.639992H226.711C230.359 0.639992 232.951 1.50399 234.487 3.23199C236.215 4.768 237.079 7.36 237.079 11.008V58.24C237.079 60.16 237.175 62.176 237.367 64.288C237.559 66.4 238.327 68.416 239.671 70.336L252.919 91.072C253.879 92.8 254.839 94.048 255.799 94.816C256.951 95.584 258.295 95.968 259.831 95.968H262.711C264.247 95.968 265.495 95.584 266.455 94.816C267.607 94.048 268.663 92.8 269.623 91.072L282.871 70.336C284.215 68.416 284.983 66.4 285.175 64.288C285.367 62.176 285.463 60.16 285.463 58.24V11.008C285.463 7.36 286.231 4.768 287.767 3.23199C289.495 1.50399 292.183 0.639992 295.831 0.639992H338.743C342.391 0.639992 344.983 1.50399 346.519 3.23199C348.247 4.768 349.111 7.36 349.111 11.008V66.304C349.111 75.136 348.343 81.76 346.807 86.176C345.271 90.592 342.391 95.776 338.167 101.728L294.391 161.056V197.632C294.391 201.28 293.527 203.968 291.799 205.696C290.263 207.232 287.671 208 284.023 208ZM264.151 132.832C268.567 132.832 272.407 131.872 275.671 129.952C279.127 128.032 282.391 124.96 285.463 120.736L314.263 81.856C316.567 78.784 317.815 75.424 318.007 71.776C318.391 67.936 318.583 63.904 318.583 59.68V26.56H315.703V59.68C315.703 63.712 315.511 67.648 315.127 71.488C314.743 75.136 313.591 78.208 311.671 80.704L282.871 119.584C279.991 123.232 277.015 125.92 273.943 127.648C271.063 129.184 267.799 129.952 264.151 129.952H256.375C253.111 129.952 249.847 129.184 246.583 127.648C243.319 126.112 240.439 123.424 237.943 119.584L210.007 80.704C208.087 77.824 206.935 74.656 206.551 71.2C206.167 67.552 205.975 63.712 205.975 59.68V26.56H203.095V59.68C203.095 63.904 203.287 67.936 203.671 71.776C204.055 75.616 205.303 78.976 207.415 81.856L235.351 120.736C238.423 124.96 241.591 128.032 244.855 129.952C248.311 131.872 252.151 132.832 256.375 132.832H259.255V182.08H262.135V132.832H264.151ZM387.726 208C384.078 208 381.39 207.232 379.662 205.696C378.126 203.968 377.358 201.28 377.358 197.632V163.36C377.358 159.712 378.126 157.12 379.662 155.584C381.39 153.856 384.078 152.992 387.726 152.992H416.238V56.224H387.726C384.078 56.224 381.39 55.456 379.662 53.92C378.126 52.192 377.358 49.504 377.358 45.856V11.008C377.358 7.36 378.126 4.768 379.662 3.23199C381.39 1.50399 384.078 0.639992 387.726 0.639992H510.414C514.062 0.639992 516.654 1.50399 518.19 3.23199C519.918 4.768 520.782 7.36 520.782 11.008V45.856C520.782 49.504 519.918 52.192 518.19 53.92C516.654 55.456 514.062 56.224 510.414 56.224H482.478V152.992H510.414C514.062 152.992 516.654 153.856 518.19 155.584C519.918 157.12 520.782 159.712 520.782 163.36V197.632C520.782 201.28 519.918 203.968 518.19 205.696C516.654 207.232 514.062 208 510.414 208H387.726ZM494.862 182.08V179.2H450.798V29.44H494.862V26.56H403.278V29.44H447.918V179.2H403.278V182.08H494.862Z"/>
</svg>
