<svg viewBox="0 0 463 157" fill="none" xmlns="http://www.w3.org/2000/svg">
<path fill="currentcolor" d="M0.264001 156.08V0.559984H92.136V3.44H3.144V85.808H68.808V88.688H3.144V156.08H0.264001ZM232.151 106.832H230.135V156.08H227.255V106.832H224.375C220.151 106.832 216.311 105.872 212.855 103.952C209.591 102.032 206.423 98.96 203.351 94.736L175.415 55.856C173.303 52.976 172.055 49.616 171.671 45.776C171.287 41.936 171.095 37.904 171.095 33.68V0.559984H173.975V33.68C173.975 37.712 174.167 41.552 174.551 45.2C174.935 48.656 176.087 51.824 178.007 54.704L205.943 93.584C208.439 97.424 211.319 100.112 214.583 101.648C217.847 103.184 221.111 103.952 224.375 103.952H232.151C235.799 103.952 239.063 103.184 241.943 101.648C245.015 99.92 247.991 97.232 250.871 93.584L279.671 54.704C281.591 52.208 282.743 49.136 283.127 45.488C283.511 41.648 283.703 37.712 283.703 33.68V0.559984H286.583V33.68C286.583 37.904 286.391 41.936 286.007 45.776C285.815 49.424 284.567 52.784 282.263 55.856L253.463 94.736C250.391 98.96 247.127 102.032 243.671 103.952C240.407 105.872 236.567 106.832 232.151 106.832ZM462.862 156.08H371.278V153.2H415.918V3.44H371.278V0.559984H462.862V3.44H418.798V153.2H462.862V156.08Z"/>
</svg>
