<svg xmlns="http://www.w3.org/2000/svg">
  <symbol id="logo" viewBox="0 0 1002 246" fill="none">
    <path fill="currentcolor"
          d="M58.848 245.272H14.208C9.6 245.272 6.24 244.216 4.128 242.104C2.016 239.992 0.960001 236.632 0.960001 232.024V45.4C0.960001 42.904 1.248 40.792 1.824 39.064C2.592 37.336 3.648 35.896 4.992 34.744L42.144 3.352C43.104 2.58399 44.352 2.00799 45.888 1.62398C47.616 1.04799 49.44 0.759995 51.36 0.759995H179.808C184.416 0.759995 187.776 1.81599 189.888 3.92799C192 6.04 193.056 9.4 193.056 14.008V48.28C193.056 50.776 192.672 52.888 191.904 54.616C191.328 56.344 190.368 57.784 189.024 58.936L156.768 85.72C161.184 85.72 164.448 86.776 166.56 88.888C168.672 91 169.728 94.36 169.728 98.968V133.528C169.728 136.024 169.344 138.136 168.576 139.864C168 141.592 167.04 143.032 165.696 144.184L128.256 175.288C127.488 176.056 126.24 176.728 124.512 177.304C122.976 177.88 121.248 178.168 119.328 178.168H109.248V200.632C109.248 203.128 108.864 205.24 108.096 206.968C107.52 208.696 106.56 210.136 105.216 211.288L67.776 242.392C67.008 243.16 65.76 243.832 64.032 244.408C62.496 244.984 60.768 245.272 58.848 245.272ZM96 211C99.648 211 102.24 210.232 103.776 208.696C105.504 206.968 106.368 204.28 106.368 200.632V143.896H156.48C160.128 143.896 162.72 143.128 164.256 141.592C165.984 139.864 166.848 137.176 166.848 133.528V98.968C166.848 95.32 165.984 92.728 164.256 91.192C162.72 89.464 160.128 88.6 156.48 88.6H106.368V58.648H179.808C183.456 58.648 186.048 57.88 187.584 56.344C189.312 54.616 190.176 51.928 190.176 48.28V14.008C190.176 10.36 189.312 7.768 187.584 6.23199C186.048 4.50399 183.456 3.63999 179.808 3.63999H51.36C47.712 3.63999 45.024 4.50399 43.296 6.23199C41.76 7.768 40.992 10.36 40.992 14.008V200.632C40.992 204.28 41.76 206.968 43.296 208.696C45.024 210.232 47.712 211 51.36 211H96ZM72.384 185.08V29.56H164.256V32.44H75.264V114.808H140.928V117.688H75.264V185.08H72.384ZM266.352 245.272H208.176C203.568 245.272 200.208 244.216 198.096 242.104C195.984 239.992 194.928 236.632 194.928 232.024V173.56C194.928 171.064 195.216 168.952 195.792 167.224C196.56 165.304 197.52 163.864 198.672 162.904L236.112 131.512C237.072 130.744 238.32 130.168 239.856 129.784C241.392 129.208 243.216 128.92 245.328 128.92H303.504C308.112 128.92 311.472 129.976 313.584 132.088C315.696 134.008 316.752 137.368 316.752 142.168V200.632C316.752 203.128 316.368 205.24 315.6 206.968C315.024 208.696 314.064 210.136 312.72 211.288L275.28 242.392C274.512 243.16 273.264 243.832 271.536 244.408C270 244.984 268.272 245.272 266.352 245.272ZM303.504 211C307.152 211 309.744 210.232 311.28 208.696C313.008 206.968 313.872 204.28 313.872 200.632V142.168C313.872 138.52 313.008 135.928 311.28 134.392C309.744 132.664 307.152 131.8 303.504 131.8H245.328C241.68 131.8 238.992 132.664 237.264 134.392C235.728 135.928 234.96 138.52 234.96 142.168V200.632C234.96 204.28 235.728 206.968 237.264 208.696C238.992 210.232 241.68 211 245.328 211H303.504ZM272.976 185.08V157.72H275.856V185.08H272.976ZM432.116 245.272H385.46C380.66 245.272 377.204 244.216 375.092 242.104C373.172 239.992 372.212 236.632 372.212 232.024V196.024L328.724 137.848C324.116 131.704 321.044 126.328 319.508 121.72C317.972 117.112 317.204 110.104 317.204 100.696V45.4C317.204 42.904 317.492 40.792 318.068 39.064C318.836 37.336 319.892 35.896 321.236 34.744L358.388 3.352C359.348 2.58399 360.596 2.00799 362.132 1.62398C363.86 1.04799 365.684 0.759995 367.604 0.759995H411.956C416.564 0.759995 419.924 1.81599 422.036 3.92799C424.148 6.04 425.204 9.4 425.204 14.008V61.24C425.204 62.968 425.3 64.696 425.492 66.424C425.684 68.152 426.26 69.976 427.22 71.896L430.676 76.792V45.4C430.676 42.904 430.964 40.792 431.54 39.064C432.308 37.336 433.364 35.896 434.708 34.744L471.86 3.352C472.82 2.58399 474.068 2.00799 475.604 1.62398C477.332 1.04799 479.156 0.759995 481.076 0.759995H523.988C528.596 0.759995 531.956 1.81599 534.068 3.92799C536.18 6.04 537.236 9.4 537.236 14.008V69.304C537.236 78.712 536.468 85.72 534.932 90.328C533.396 94.936 530.324 100.312 525.716 106.456L482.516 164.92V200.632C482.516 203.128 482.132 205.24 481.364 206.968C480.788 208.696 479.828 210.136 478.484 211.288L441.044 242.392C440.276 243.16 439.028 243.832 437.3 244.408C435.764 244.984 434.036 245.272 432.116 245.272ZM469.268 211C472.916 211 475.508 210.232 477.044 208.696C478.772 206.968 479.636 204.28 479.636 200.632V164.056L523.412 104.728C527.636 98.776 530.516 93.592 532.052 89.176C533.588 84.76 534.356 78.136 534.356 69.304V14.008C534.356 10.36 533.492 7.768 531.764 6.23199C530.228 4.50399 527.636 3.63999 523.988 3.63999H481.076C477.428 3.63999 474.74 4.50399 473.012 6.23199C471.476 7.768 470.708 10.36 470.708 14.008V61.24C470.708 63.16 470.612 65.176 470.42 67.288C470.228 69.4 469.46 71.416 468.116 73.336L454.868 94.072C453.908 95.8 452.852 97.048 451.7 97.816C450.74 98.584 449.492 98.968 447.956 98.968H445.076C443.54 98.968 442.196 98.584 441.044 97.816C440.084 97.048 439.124 95.8 438.164 94.072L424.916 73.336C423.572 71.416 422.804 69.4 422.612 67.288C422.42 65.176 422.324 63.16 422.324 61.24V14.008C422.324 10.36 421.46 7.768 419.732 6.23199C418.196 4.50399 415.604 3.63999 411.956 3.63999H367.604C363.956 3.63999 361.268 4.50399 359.54 6.23199C358.004 7.768 357.236 10.36 357.236 14.008V69.304C357.236 78.136 357.908 84.76 359.252 89.176C360.788 93.592 363.764 98.776 368.18 104.728L412.244 163.768V200.632C412.244 204.28 413.012 206.968 414.548 208.696C416.276 210.232 418.964 211 422.612 211H469.268ZM449.396 135.832H447.38V185.08H444.5V135.832H441.62C437.396 135.832 433.556 134.872 430.1 132.952C426.836 131.032 423.668 127.96 420.596 123.736L392.66 84.856C390.548 81.976 389.3 78.616 388.916 74.776C388.532 70.936 388.34 66.904 388.34 62.68V29.56H391.22V62.68C391.22 66.712 391.412 70.552 391.796 74.2C392.18 77.656 393.332 80.824 395.252 83.704L423.188 122.584C425.684 126.424 428.564 129.112 431.828 130.648C435.092 132.184 438.356 132.952 441.62 132.952H449.396C453.044 132.952 456.308 132.184 459.188 130.648C462.26 128.92 465.236 126.232 468.116 122.584L496.916 83.704C498.836 81.208 499.988 78.136 500.372 74.488C500.756 70.648 500.948 66.712 500.948 62.68V29.56H503.828V62.68C503.828 66.904 503.636 70.936 503.252 74.776C503.06 78.424 501.812 81.784 499.508 84.856L470.708 123.736C467.636 127.96 464.372 131.032 460.916 132.952C457.652 134.872 453.812 135.832 449.396 135.832ZM608.915 245.272H550.739C546.131 245.272 542.771 244.216 540.659 242.104C538.547 239.992 537.491 236.632 537.491 232.024V173.56C537.491 171.064 537.779 168.952 538.355 167.224C539.123 165.304 540.083 163.864 541.235 162.904L578.675 131.512C579.635 130.744 580.883 130.168 582.419 129.784C583.955 129.208 585.779 128.92 587.891 128.92H646.067C650.675 128.92 654.035 129.976 656.147 132.088C658.259 134.008 659.315 137.368 659.315 142.168V200.632C659.315 203.128 658.931 205.24 658.163 206.968C657.587 208.696 656.627 210.136 655.283 211.288L617.843 242.392C617.075 243.16 615.827 243.832 614.099 244.408C612.563 244.984 610.835 245.272 608.915 245.272ZM646.067 211C649.715 211 652.307 210.232 653.843 208.696C655.571 206.968 656.435 204.28 656.435 200.632V142.168C656.435 138.52 655.571 135.928 653.843 134.392C652.307 132.664 649.715 131.8 646.067 131.8H587.891C584.243 131.8 581.555 132.664 579.827 134.392C578.291 135.928 577.523 138.52 577.523 142.168V200.632C577.523 204.28 578.291 206.968 579.827 208.696C581.555 210.232 584.243 211 587.891 211H646.067ZM615.539 185.08V157.72H618.419V185.08H615.539ZM812.351 245.272H689.663C685.055 245.272 681.695 244.216 679.583 242.104C677.471 239.992 676.415 236.632 676.415 232.024V197.752C676.415 195.256 676.703 193.144 677.279 191.416C678.047 189.688 679.103 188.248 680.447 187.096L715.295 157.72V93.496H689.663C685.055 93.496 681.695 92.44 679.583 90.328C677.471 88.216 676.415 84.856 676.415 80.248V45.4C676.415 42.904 676.703 40.792 677.279 39.064C678.047 37.336 679.103 35.896 680.447 34.744L717.599 3.352C718.559 2.58399 719.807 2.00799 721.343 1.62398C723.071 1.04799 724.895 0.759995 726.815 0.759995H849.503C854.111 0.759995 857.471 1.81599 859.583 3.92799C861.695 6.04 862.751 9.4 862.751 14.008V48.856C862.751 51.352 862.367 53.464 861.599 55.192C861.023 56.92 860.063 58.36 858.719 59.512L824.447 88.312V153.112H849.503C854.111 153.112 857.471 154.168 859.583 156.28C861.695 158.392 862.751 161.752 862.751 166.36V200.632C862.751 203.128 862.367 205.24 861.599 206.968C861.023 208.696 860.063 210.136 858.719 211.288L821.279 242.392C820.51 243.16 819.263 243.832 817.535 244.408C815.999 244.984 814.271 245.272 812.351 245.272ZM726.815 211H849.503C853.151 211 855.743 210.232 857.279 208.696C859.007 206.968 859.871 204.28 859.871 200.632V166.36C859.871 162.712 859.007 160.12 857.279 158.584C855.743 156.856 853.151 155.992 849.503 155.992H821.567V59.224H849.503C853.151 59.224 855.743 58.456 857.279 56.92C859.007 55.192 859.871 52.504 859.871 48.856V14.008C859.871 10.36 859.007 7.768 857.279 6.23199C855.743 4.50399 853.151 3.63999 849.503 3.63999H726.815C723.167 3.63999 720.479 4.50399 718.751 6.23199C717.215 7.768 716.447 10.36 716.447 14.008V48.856C716.447 52.504 717.215 55.192 718.751 56.92C720.479 58.456 723.167 59.224 726.815 59.224H755.327V155.992H726.815C723.167 155.992 720.479 156.856 718.751 158.584C717.215 160.12 716.447 162.712 716.447 166.36V200.632C716.447 204.28 717.215 206.968 718.751 208.696C720.479 210.232 723.167 211 726.815 211ZM833.951 185.08H742.367V182.2H787.007V32.44H742.367V29.56H833.951V32.44H789.887V182.2H833.951V185.08ZM951.477 245.272H893.301C888.693 245.272 885.333 244.216 883.221 242.104C881.109 239.992 880.053 236.632 880.053 232.024V173.56C880.053 171.064 880.341 168.952 880.917 167.224C881.685 165.304 882.645 163.864 883.797 162.904L921.237 131.512C922.197 130.744 923.445 130.168 924.981 129.784C926.517 129.208 928.341 128.92 930.453 128.92H988.629C993.237 128.92 996.597 129.976 998.709 132.088C1000.82 134.008 1001.88 137.368 1001.88 142.168V200.632C1001.88 203.128 1001.49 205.24 1000.73 206.968C1000.15 208.696 999.189 210.136 997.845 211.288L960.405 242.392C959.637 243.16 958.389 243.832 956.661 244.408C955.125 244.984 953.397 245.272 951.477 245.272ZM988.629 211C992.277 211 994.869 210.232 996.405 208.696C998.133 206.968 998.997 204.28 998.997 200.632V142.168C998.997 138.52 998.133 135.928 996.405 134.392C994.869 132.664 992.277 131.8 988.629 131.8H930.453C926.805 131.8 924.117 132.664 922.389 134.392C920.853 135.928 920.085 138.52 920.085 142.168V200.632C920.085 204.28 920.853 206.968 922.389 208.696C924.117 210.232 926.805 211 930.453 211H988.629ZM958.101 185.08V157.72H960.981V185.08H958.101Z"/>
  </symbol>
  <symbol id="logo-1" viewBox="0 0 622 246" fill="none">
    <path fill="currentcolor"
          d="M58.848 245.272H14.208C9.6 245.272 6.24 244.216 4.128 242.104C2.016 239.992 0.960001 236.632 0.960001 232.024V45.4C0.960001 42.904 1.248 40.792 1.824 39.064C2.592 37.336 3.648 35.896 4.992 34.744L42.144 3.352C43.104 2.58399 44.352 2.00799 45.888 1.62398C47.616 1.04799 49.44 0.759995 51.36 0.759995H179.808C184.416 0.759995 187.776 1.81599 189.888 3.92799C192 6.04 193.056 9.4 193.056 14.008V48.28C193.056 50.776 192.672 52.888 191.904 54.616C191.328 56.344 190.368 57.784 189.024 58.936L156.768 85.72C161.184 85.72 164.448 86.776 166.56 88.888C168.672 91 169.728 94.36 169.728 98.968V133.528C169.728 136.024 169.344 138.136 168.576 139.864C168 141.592 167.04 143.032 165.696 144.184L128.256 175.288C127.488 176.056 126.24 176.728 124.512 177.304C122.976 177.88 121.248 178.168 119.328 178.168H109.248V200.632C109.248 203.128 108.864 205.24 108.096 206.968C107.52 208.696 106.56 210.136 105.216 211.288L67.776 242.392C67.008 243.16 65.76 243.832 64.032 244.408C62.496 244.984 60.768 245.272 58.848 245.272ZM96 211C99.648 211 102.24 210.232 103.776 208.696C105.504 206.968 106.368 204.28 106.368 200.632V143.896H156.48C160.128 143.896 162.72 143.128 164.256 141.592C165.984 139.864 166.848 137.176 166.848 133.528V98.968C166.848 95.32 165.984 92.728 164.256 91.192C162.72 89.464 160.128 88.6 156.48 88.6H106.368V58.648H179.808C183.456 58.648 186.048 57.88 187.584 56.344C189.312 54.616 190.176 51.928 190.176 48.28V14.008C190.176 10.36 189.312 7.768 187.584 6.23199C186.048 4.50399 183.456 3.63999 179.808 3.63999H51.36C47.712 3.63999 45.024 4.50399 43.296 6.23199C41.76 7.768 40.992 10.36 40.992 14.008V200.632C40.992 204.28 41.76 206.968 43.296 208.696C45.024 210.232 47.712 211 51.36 211H96ZM72.384 185.08V29.56H164.256V32.44H75.264V114.808H140.928V117.688H75.264V185.08H72.384ZM315.679 245.272H269.023C264.223 245.272 260.767 244.216 258.655 242.104C256.735 239.992 255.775 236.632 255.775 232.024V196.024L212.287 137.848C207.679 131.704 204.607 126.328 203.071 121.72C201.535 117.112 200.767 110.104 200.767 100.696V45.4C200.767 42.904 201.055 40.792 201.631 39.064C202.399 37.336 203.455 35.896 204.799 34.744L241.951 3.352C242.911 2.58399 244.159 2.00799 245.695 1.62398C247.423 1.04799 249.247 0.759995 251.167 0.759995H295.519C300.127 0.759995 303.487 1.81599 305.599 3.92799C307.711 6.04 308.767 9.4 308.767 14.008V61.24C308.767 62.968 308.863 64.696 309.055 66.424C309.247 68.152 309.823 69.976 310.783 71.896L314.239 76.792V45.4C314.239 42.904 314.527 40.792 315.103 39.064C315.871 37.336 316.927 35.896 318.271 34.744L355.423 3.352C356.383 2.58399 357.631 2.00799 359.167 1.62398C360.895 1.04799 362.719 0.759995 364.639 0.759995H407.551C412.159 0.759995 415.519 1.81599 417.631 3.92799C419.743 6.04 420.799 9.4 420.799 14.008V69.304C420.799 78.712 420.031 85.72 418.495 90.328C416.959 94.936 413.887 100.312 409.279 106.456L366.079 164.92V200.632C366.079 203.128 365.695 205.24 364.927 206.968C364.351 208.696 363.391 210.136 362.047 211.288L324.607 242.392C323.839 243.16 322.591 243.832 320.863 244.408C319.327 244.984 317.599 245.272 315.679 245.272ZM352.831 211C356.479 211 359.071 210.232 360.607 208.696C362.335 206.968 363.199 204.28 363.199 200.632V164.056L406.975 104.728C411.199 98.776 414.079 93.592 415.615 89.176C417.151 84.76 417.919 78.136 417.919 69.304V14.008C417.919 10.36 417.055 7.768 415.327 6.23199C413.791 4.50399 411.199 3.63999 407.551 3.63999H364.639C360.991 3.63999 358.303 4.50399 356.575 6.23199C355.039 7.768 354.271 10.36 354.271 14.008V61.24C354.271 63.16 354.175 65.176 353.983 67.288C353.791 69.4 353.023 71.416 351.679 73.336L338.431 94.072C337.471 95.8 336.415 97.048 335.263 97.816C334.303 98.584 333.055 98.968 331.519 98.968H328.639C327.103 98.968 325.759 98.584 324.607 97.816C323.647 97.048 322.687 95.8 321.727 94.072L308.479 73.336C307.135 71.416 306.367 69.4 306.175 67.288C305.983 65.176 305.887 63.16 305.887 61.24V14.008C305.887 10.36 305.023 7.768 303.295 6.23199C301.759 4.50399 299.167 3.63999 295.519 3.63999H251.167C247.519 3.63999 244.831 4.50399 243.103 6.23199C241.567 7.768 240.799 10.36 240.799 14.008V69.304C240.799 78.136 241.471 84.76 242.815 89.176C244.351 93.592 247.327 98.776 251.743 104.728L295.807 163.768V200.632C295.807 204.28 296.575 206.968 298.111 208.696C299.839 210.232 302.527 211 306.175 211H352.831ZM332.959 135.832H330.943V185.08H328.063V135.832H325.183C320.959 135.832 317.119 134.872 313.663 132.952C310.399 131.032 307.231 127.96 304.159 123.736L276.223 84.856C274.111 81.976 272.863 78.616 272.479 74.776C272.095 70.936 271.903 66.904 271.903 62.68V29.56H274.783V62.68C274.783 66.712 274.975 70.552 275.359 74.2C275.743 77.656 276.895 80.824 278.815 83.704L306.751 122.584C309.247 126.424 312.127 129.112 315.391 130.648C318.655 132.184 321.919 132.952 325.183 132.952H332.959C336.607 132.952 339.871 132.184 342.751 130.648C345.823 128.92 348.799 126.232 351.679 122.584L380.479 83.704C382.399 81.208 383.551 78.136 383.935 74.488C384.319 70.648 384.511 66.712 384.511 62.68V29.56H387.391V62.68C387.391 66.904 387.199 70.936 386.815 74.776C386.623 78.424 385.375 81.784 383.071 84.856L354.271 123.736C351.199 127.96 347.935 131.032 344.479 132.952C341.215 134.872 337.375 135.832 332.959 135.832ZM570.757 245.272H448.069C443.461 245.272 440.101 244.216 437.989 242.104C435.877 239.992 434.821 236.632 434.821 232.024V197.752C434.821 195.256 435.109 193.144 435.685 191.416C436.453 189.688 437.509 188.248 438.853 187.096L473.701 157.72V93.496H448.069C443.461 93.496 440.101 92.44 437.989 90.328C435.877 88.216 434.821 84.856 434.821 80.248V45.4C434.821 42.904 435.109 40.792 435.685 39.064C436.453 37.336 437.509 35.896 438.853 34.744L476.005 3.352C476.965 2.58399 478.213 2.00799 479.749 1.62398C481.477 1.04799 483.301 0.759995 485.221 0.759995H607.909C612.517 0.759995 615.877 1.81599 617.989 3.92799C620.101 6.04 621.157 9.4 621.157 14.008V48.856C621.157 51.352 620.773 53.464 620.005 55.192C619.429 56.92 618.469 58.36 617.125 59.512L582.853 88.312V153.112H607.909C612.517 153.112 615.877 154.168 617.989 156.28C620.101 158.392 621.157 161.752 621.157 166.36V200.632C621.157 203.128 620.773 205.24 620.005 206.968C619.429 208.696 618.469 210.136 617.125 211.288L579.685 242.392C578.917 243.16 577.669 243.832 575.941 244.408C574.405 244.984 572.677 245.272 570.757 245.272ZM485.221 211H607.909C611.557 211 614.149 210.232 615.685 208.696C617.413 206.968 618.277 204.28 618.277 200.632V166.36C618.277 162.712 617.413 160.12 615.685 158.584C614.149 156.856 611.557 155.992 607.909 155.992H579.973V59.224H607.909C611.557 59.224 614.149 58.456 615.685 56.92C617.413 55.192 618.277 52.504 618.277 48.856V14.008C618.277 10.36 617.413 7.768 615.685 6.23199C614.149 4.50399 611.557 3.63999 607.909 3.63999H485.221C481.573 3.63999 478.885 4.50399 477.157 6.23199C475.621 7.768 474.853 10.36 474.853 14.008V48.856C474.853 52.504 475.621 55.192 477.157 56.92C478.885 58.456 481.573 59.224 485.221 59.224H513.733V155.992H485.221C481.573 155.992 478.885 156.856 477.157 158.584C475.621 160.12 474.853 162.712 474.853 166.36V200.632C474.853 204.28 475.621 206.968 477.157 208.696C478.885 210.232 481.573 211 485.221 211ZM592.357 185.08H500.773V182.2H545.413V32.44H500.773V29.56H592.357V32.44H548.293V182.2H592.357V185.08Z"/>
  </symbol>
  <symbol id="logo-2" viewBox="0 0 815 208" fill="none">
    <path fill="currentcolor"
          d="M55.88 208H11.24C7.592 208 4.904 207.232 3.176 205.696C1.64 203.968 0.872002 201.28 0.872002 197.632V11.008C0.872002 7.36 1.64 4.768 3.176 3.23199C4.904 1.50399 7.592 0.639992 11.24 0.639992H139.688C143.336 0.639992 145.928 1.50399 147.464 3.23199C149.192 4.768 150.056 7.36 150.056 11.008V45.28C150.056 48.928 149.192 51.616 147.464 53.344C145.928 54.88 143.336 55.648 139.688 55.648H66.248V85.6H116.36C120.008 85.6 122.6 86.464 124.136 88.192C125.864 89.728 126.728 92.32 126.728 95.968V130.528C126.728 134.176 125.864 136.864 124.136 138.592C122.6 140.128 120.008 140.896 116.36 140.896H66.248V197.632C66.248 201.28 65.384 203.968 63.656 205.696C62.12 207.232 59.528 208 55.88 208ZM234.697 208H176.521C172.873 208 170.185 207.232 168.457 205.696C166.921 203.968 166.153 201.28 166.153 197.632V139.168C166.153 135.52 166.921 132.928 168.457 131.392C170.185 129.664 172.873 128.8 176.521 128.8H234.697C238.345 128.8 240.937 129.664 242.473 131.392C244.201 132.928 245.065 135.52 245.065 139.168V197.632C245.065 201.28 244.201 203.968 242.473 205.696C240.937 207.232 238.345 208 234.697 208ZM371.492 208H324.836C321.188 208 318.5 207.232 316.772 205.696C315.236 203.968 314.468 201.28 314.468 197.632V160.768L270.404 101.728C265.988 95.776 263.012 90.592 261.476 86.176C260.132 81.76 259.46 75.136 259.46 66.304V11.008C259.46 7.36 260.228 4.768 261.764 3.23199C263.492 1.50399 266.18 0.639992 269.828 0.639992H314.18C317.828 0.639992 320.42 1.50399 321.956 3.23199C323.684 4.768 324.548 7.36 324.548 11.008V58.24C324.548 60.16 324.644 62.176 324.836 64.288C325.028 66.4 325.796 68.416 327.14 70.336L340.388 91.072C341.348 92.8 342.308 94.048 343.268 94.816C344.42 95.584 345.764 95.968 347.3 95.968H350.18C351.716 95.968 352.964 95.584 353.924 94.816C355.076 94.048 356.132 92.8 357.092 91.072L370.34 70.336C371.684 68.416 372.452 66.4 372.644 64.288C372.836 62.176 372.932 60.16 372.932 58.24V11.008C372.932 7.36 373.7 4.768 375.236 3.23199C376.964 1.50399 379.652 0.639992 383.3 0.639992H426.212C429.86 0.639992 432.452 1.50399 433.988 3.23199C435.716 4.768 436.58 7.36 436.58 11.008V66.304C436.58 75.136 435.812 81.76 434.276 86.176C432.74 90.592 429.86 95.776 425.636 101.728L381.86 161.056V197.632C381.86 201.28 380.996 203.968 379.268 205.696C377.732 207.232 375.14 208 371.492 208ZM519.603 208H461.427C457.779 208 455.091 207.232 453.363 205.696C451.827 203.968 451.059 201.28 451.059 197.632V139.168C451.059 135.52 451.827 132.928 453.363 131.392C455.091 129.664 457.779 128.8 461.427 128.8H519.603C523.251 128.8 525.843 129.664 527.379 131.392C529.107 132.928 529.971 135.52 529.971 139.168V197.632C529.971 201.28 529.107 203.968 527.379 205.696C525.843 207.232 523.251 208 519.603 208ZM571.382 208C567.734 208 565.046 207.232 563.318 205.696C561.782 203.968 561.014 201.28 561.014 197.632V163.36C561.014 159.712 561.782 157.12 563.318 155.584C565.046 153.856 567.734 152.992 571.382 152.992H599.894V56.224H571.382C567.734 56.224 565.046 55.456 563.318 53.92C561.782 52.192 561.014 49.504 561.014 45.856V11.008C561.014 7.36 561.782 4.768 563.318 3.23199C565.046 1.50399 567.734 0.639992 571.382 0.639992H694.07C697.718 0.639992 700.31 1.50399 701.846 3.23199C703.574 4.768 704.438 7.36 704.438 11.008V45.856C704.438 49.504 703.574 52.192 701.846 53.92C700.31 55.456 697.718 56.224 694.07 56.224H666.134V152.992H694.07C697.718 152.992 700.31 153.856 701.846 155.584C703.574 157.12 704.438 159.712 704.438 163.36V197.632C704.438 201.28 703.574 203.968 701.846 205.696C700.31 207.232 697.718 208 694.07 208H571.382ZM804.509 208H746.333C742.685 208 739.997 207.232 738.269 205.696C736.733 203.968 735.965 201.28 735.965 197.632V139.168C735.965 135.52 736.733 132.928 738.269 131.392C739.997 129.664 742.685 128.8 746.333 128.8H804.509C808.157 128.8 810.749 129.664 812.285 131.392C814.013 132.928 814.877 135.52 814.877 139.168V197.632C814.877 201.28 814.013 203.968 812.285 205.696C810.749 207.232 808.157 208 804.509 208Z"/>
  </symbol>
  <symbol id="logo-3" viewBox="0 0 815 208" fill="none">
    <path fill="currentcolor"
          d="M55.88 208H11.24C7.592 208 4.904 207.232 3.176 205.696C1.64 203.968 0.872002 201.28 0.872002 197.632V11.008C0.872002 7.36 1.64 4.768 3.176 3.23199C4.904 1.50399 7.592 0.639992 11.24 0.639992H139.688C143.336 0.639992 145.928 1.50399 147.464 3.23199C149.192 4.768 150.056 7.36 150.056 11.008V45.28C150.056 48.928 149.192 51.616 147.464 53.344C145.928 54.88 143.336 55.648 139.688 55.648H66.248V85.6H116.36C120.008 85.6 122.6 86.464 124.136 88.192C125.864 89.728 126.728 92.32 126.728 95.968V130.528C126.728 134.176 125.864 136.864 124.136 138.592C122.6 140.128 120.008 140.896 116.36 140.896H66.248V197.632C66.248 201.28 65.384 203.968 63.656 205.696C62.12 207.232 59.528 208 55.88 208ZM32.264 182.08H35.144V114.688H100.808V111.808H35.144V29.44H124.136V26.56H32.264V182.08ZM234.697 208H176.521C172.873 208 170.185 207.232 168.457 205.696C166.921 203.968 166.153 201.28 166.153 197.632V139.168C166.153 135.52 166.921 132.928 168.457 131.392C170.185 129.664 172.873 128.8 176.521 128.8H234.697C238.345 128.8 240.937 129.664 242.473 131.392C244.201 132.928 245.065 135.52 245.065 139.168V197.632C245.065 201.28 244.201 203.968 242.473 205.696C240.937 207.232 238.345 208 234.697 208ZM204.169 182.08H207.049V154.72H204.169V182.08ZM371.492 208H324.836C321.188 208 318.5 207.232 316.772 205.696C315.236 203.968 314.468 201.28 314.468 197.632V160.768L270.404 101.728C265.988 95.776 263.012 90.592 261.476 86.176C260.132 81.76 259.46 75.136 259.46 66.304V11.008C259.46 7.36 260.228 4.768 261.764 3.23199C263.492 1.50399 266.18 0.639992 269.828 0.639992H314.18C317.828 0.639992 320.42 1.50399 321.956 3.23199C323.684 4.768 324.548 7.36 324.548 11.008V58.24C324.548 60.16 324.644 62.176 324.836 64.288C325.028 66.4 325.796 68.416 327.14 70.336L340.388 91.072C341.348 92.8 342.308 94.048 343.268 94.816C344.42 95.584 345.764 95.968 347.3 95.968H350.18C351.716 95.968 352.964 95.584 353.924 94.816C355.076 94.048 356.132 92.8 357.092 91.072L370.34 70.336C371.684 68.416 372.452 66.4 372.644 64.288C372.836 62.176 372.932 60.16 372.932 58.24V11.008C372.932 7.36 373.7 4.768 375.236 3.23199C376.964 1.50399 379.652 0.639992 383.3 0.639992H426.212C429.86 0.639992 432.452 1.50399 433.988 3.23199C435.716 4.768 436.58 7.36 436.58 11.008V66.304C436.58 75.136 435.812 81.76 434.276 86.176C432.74 90.592 429.86 95.776 425.636 101.728L381.86 161.056V197.632C381.86 201.28 380.996 203.968 379.268 205.696C377.732 207.232 375.14 208 371.492 208ZM351.62 132.832C356.036 132.832 359.876 131.872 363.14 129.952C366.596 128.032 369.86 124.96 372.932 120.736L401.732 81.856C404.036 78.784 405.284 75.424 405.476 71.776C405.86 67.936 406.052 63.904 406.052 59.68V26.56H403.172V59.68C403.172 63.712 402.98 67.648 402.596 71.488C402.212 75.136 401.06 78.208 399.14 80.704L370.34 119.584C367.46 123.232 364.484 125.92 361.412 127.648C358.532 129.184 355.268 129.952 351.62 129.952H343.844C340.58 129.952 337.316 129.184 334.052 127.648C330.788 126.112 327.908 123.424 325.412 119.584L297.476 80.704C295.556 77.824 294.404 74.656 294.02 71.2C293.636 67.552 293.444 63.712 293.444 59.68V26.56H290.564V59.68C290.564 63.904 290.756 67.936 291.14 71.776C291.524 75.616 292.772 78.976 294.884 81.856L322.82 120.736C325.892 124.96 329.06 128.032 332.324 129.952C335.78 131.872 339.62 132.832 343.844 132.832H346.724V182.08H349.604V132.832H351.62ZM519.603 208H461.427C457.779 208 455.091 207.232 453.363 205.696C451.827 203.968 451.059 201.28 451.059 197.632V139.168C451.059 135.52 451.827 132.928 453.363 131.392C455.091 129.664 457.779 128.8 461.427 128.8H519.603C523.251 128.8 525.843 129.664 527.379 131.392C529.107 132.928 529.971 135.52 529.971 139.168V197.632C529.971 201.28 529.107 203.968 527.379 205.696C525.843 207.232 523.251 208 519.603 208ZM489.075 182.08H491.955V154.72H489.075V182.08ZM571.382 208C567.734 208 565.046 207.232 563.318 205.696C561.782 203.968 561.014 201.28 561.014 197.632V163.36C561.014 159.712 561.782 157.12 563.318 155.584C565.046 153.856 567.734 152.992 571.382 152.992H599.894V56.224H571.382C567.734 56.224 565.046 55.456 563.318 53.92C561.782 52.192 561.014 49.504 561.014 45.856V11.008C561.014 7.36 561.782 4.768 563.318 3.23199C565.046 1.50399 567.734 0.639992 571.382 0.639992H694.07C697.718 0.639992 700.31 1.50399 701.846 3.23199C703.574 4.768 704.438 7.36 704.438 11.008V45.856C704.438 49.504 703.574 52.192 701.846 53.92C700.31 55.456 697.718 56.224 694.07 56.224H666.134V152.992H694.07C697.718 152.992 700.31 153.856 701.846 155.584C703.574 157.12 704.438 159.712 704.438 163.36V197.632C704.438 201.28 703.574 203.968 701.846 205.696C700.31 207.232 697.718 208 694.07 208H571.382ZM678.518 182.08V179.2H634.454V29.44H678.518V26.56H586.934V29.44H631.574V179.2H586.934V182.08H678.518ZM804.509 208H746.333C742.685 208 739.997 207.232 738.269 205.696C736.733 203.968 735.965 201.28 735.965 197.632V139.168C735.965 135.52 736.733 132.928 738.269 131.392C739.997 129.664 742.685 128.8 746.333 128.8H804.509C808.157 128.8 810.749 129.664 812.285 131.392C814.013 132.928 814.877 135.52 814.877 139.168V197.632C814.877 201.28 814.013 203.968 812.285 205.696C810.749 207.232 808.157 208 804.509 208ZM773.981 182.08H776.861V154.72H773.981V182.08Z"/>
  </symbol>
  <symbol id="logo-4" viewBox="0 0 521 208" fill="none">
    <path fill="currentcolor"
          d="M55.88 208H11.24C7.592 208 4.904 207.232 3.176 205.696C1.64 203.968 0.872002 201.28 0.872002 197.632V11.008C0.872002 7.36 1.64 4.768 3.176 3.23199C4.904 1.50399 7.592 0.639992 11.24 0.639992H139.688C143.336 0.639992 145.928 1.50399 147.464 3.23199C149.192 4.768 150.056 7.36 150.056 11.008V45.28C150.056 48.928 149.192 51.616 147.464 53.344C145.928 54.88 143.336 55.648 139.688 55.648H66.248V85.6H116.36C120.008 85.6 122.6 86.464 124.136 88.192C125.864 89.728 126.728 92.32 126.728 95.968V130.528C126.728 134.176 125.864 136.864 124.136 138.592C122.6 140.128 120.008 140.896 116.36 140.896H66.248V197.632C66.248 201.28 65.384 203.968 63.656 205.696C62.12 207.232 59.528 208 55.88 208ZM284.023 208H237.367C233.719 208 231.031 207.232 229.303 205.696C227.767 203.968 226.999 201.28 226.999 197.632V160.768L182.935 101.728C178.519 95.776 175.543 90.592 174.007 86.176C172.663 81.76 171.991 75.136 171.991 66.304V11.008C171.991 7.36 172.759 4.768 174.295 3.23199C176.023 1.50399 178.711 0.639992 182.359 0.639992H226.711C230.359 0.639992 232.951 1.50399 234.487 3.23199C236.215 4.768 237.079 7.36 237.079 11.008V58.24C237.079 60.16 237.175 62.176 237.367 64.288C237.559 66.4 238.327 68.416 239.671 70.336L252.919 91.072C253.879 92.8 254.839 94.048 255.799 94.816C256.951 95.584 258.295 95.968 259.831 95.968H262.711C264.247 95.968 265.495 95.584 266.455 94.816C267.607 94.048 268.663 92.8 269.623 91.072L282.871 70.336C284.215 68.416 284.983 66.4 285.175 64.288C285.367 62.176 285.463 60.16 285.463 58.24V11.008C285.463 7.36 286.231 4.768 287.767 3.23199C289.495 1.50399 292.183 0.639992 295.831 0.639992H338.743C342.391 0.639992 344.983 1.50399 346.519 3.23199C348.247 4.768 349.111 7.36 349.111 11.008V66.304C349.111 75.136 348.343 81.76 346.807 86.176C345.271 90.592 342.391 95.776 338.167 101.728L294.391 161.056V197.632C294.391 201.28 293.527 203.968 291.799 205.696C290.263 207.232 287.671 208 284.023 208ZM387.726 208C384.078 208 381.39 207.232 379.662 205.696C378.126 203.968 377.358 201.28 377.358 197.632V163.36C377.358 159.712 378.126 157.12 379.662 155.584C381.39 153.856 384.078 152.992 387.726 152.992H416.238V56.224H387.726C384.078 56.224 381.39 55.456 379.662 53.92C378.126 52.192 377.358 49.504 377.358 45.856V11.008C377.358 7.36 378.126 4.768 379.662 3.23199C381.39 1.50399 384.078 0.639992 387.726 0.639992H510.414C514.062 0.639992 516.654 1.50399 518.19 3.23199C519.918 4.768 520.782 7.36 520.782 11.008V45.856C520.782 49.504 519.918 52.192 518.19 53.92C516.654 55.456 514.062 56.224 510.414 56.224H482.478V152.992H510.414C514.062 152.992 516.654 153.856 518.19 155.584C519.918 157.12 520.782 159.712 520.782 163.36V197.632C520.782 201.28 519.918 203.968 518.19 205.696C516.654 207.232 514.062 208 510.414 208H387.726Z"/>
  </symbol>
  <symbol id="logo-5" viewBox="0 0 463 157" fill="none">
    <path fill="currentcolor"
          d="M0.264001 156.08V0.559984H92.136V3.44H3.144V85.808H68.808V88.688H3.144V156.08H0.264001ZM232.151 106.832H230.135V156.08H227.255V106.832H224.375C220.151 106.832 216.311 105.872 212.855 103.952C209.591 102.032 206.423 98.96 203.351 94.736L175.415 55.856C173.303 52.976 172.055 49.616 171.671 45.776C171.287 41.936 171.095 37.904 171.095 33.68V0.559984H173.975V33.68C173.975 37.712 174.167 41.552 174.551 45.2C174.935 48.656 176.087 51.824 178.007 54.704L205.943 93.584C208.439 97.424 211.319 100.112 214.583 101.648C217.847 103.184 221.111 103.952 224.375 103.952H232.151C235.799 103.952 239.063 103.184 241.943 101.648C245.015 99.92 247.991 97.232 250.871 93.584L279.671 54.704C281.591 52.208 282.743 49.136 283.127 45.488C283.511 41.648 283.703 37.712 283.703 33.68V0.559984H286.583V33.68C286.583 37.904 286.391 41.936 286.007 45.776C285.815 49.424 284.567 52.784 282.263 55.856L253.463 94.736C250.391 98.96 247.127 102.032 243.671 103.952C240.407 105.872 236.567 106.832 232.151 106.832ZM462.862 156.08H371.278V153.2H415.918V3.44H371.278V0.559984H462.862V3.44H418.798V153.2H462.862V156.08Z"/>
  </symbol>
  <symbol id="logo-6" viewBox="0 0 521 208" fill="none">
    <path fill="currentcolor"
          d="M55.88 208H11.24C7.592 208 4.904 207.232 3.176 205.696C1.64 203.968 0.872002 201.28 0.872002 197.632V11.008C0.872002 7.36 1.64 4.768 3.176 3.23199C4.904 1.50399 7.592 0.639992 11.24 0.639992H139.688C143.336 0.639992 145.928 1.50399 147.464 3.23199C149.192 4.768 150.056 7.36 150.056 11.008V45.28C150.056 48.928 149.192 51.616 147.464 53.344C145.928 54.88 143.336 55.648 139.688 55.648H66.248V85.6H116.36C120.008 85.6 122.6 86.464 124.136 88.192C125.864 89.728 126.728 92.32 126.728 95.968V130.528C126.728 134.176 125.864 136.864 124.136 138.592C122.6 140.128 120.008 140.896 116.36 140.896H66.248V197.632C66.248 201.28 65.384 203.968 63.656 205.696C62.12 207.232 59.528 208 55.88 208ZM32.264 182.08H35.144V114.688H100.808V111.808H35.144V29.44H124.136V26.56H32.264V182.08ZM284.023 208H237.367C233.719 208 231.031 207.232 229.303 205.696C227.767 203.968 226.999 201.28 226.999 197.632V160.768L182.935 101.728C178.519 95.776 175.543 90.592 174.007 86.176C172.663 81.76 171.991 75.136 171.991 66.304V11.008C171.991 7.36 172.759 4.768 174.295 3.23199C176.023 1.50399 178.711 0.639992 182.359 0.639992H226.711C230.359 0.639992 232.951 1.50399 234.487 3.23199C236.215 4.768 237.079 7.36 237.079 11.008V58.24C237.079 60.16 237.175 62.176 237.367 64.288C237.559 66.4 238.327 68.416 239.671 70.336L252.919 91.072C253.879 92.8 254.839 94.048 255.799 94.816C256.951 95.584 258.295 95.968 259.831 95.968H262.711C264.247 95.968 265.495 95.584 266.455 94.816C267.607 94.048 268.663 92.8 269.623 91.072L282.871 70.336C284.215 68.416 284.983 66.4 285.175 64.288C285.367 62.176 285.463 60.16 285.463 58.24V11.008C285.463 7.36 286.231 4.768 287.767 3.23199C289.495 1.50399 292.183 0.639992 295.831 0.639992H338.743C342.391 0.639992 344.983 1.50399 346.519 3.23199C348.247 4.768 349.111 7.36 349.111 11.008V66.304C349.111 75.136 348.343 81.76 346.807 86.176C345.271 90.592 342.391 95.776 338.167 101.728L294.391 161.056V197.632C294.391 201.28 293.527 203.968 291.799 205.696C290.263 207.232 287.671 208 284.023 208ZM264.151 132.832C268.567 132.832 272.407 131.872 275.671 129.952C279.127 128.032 282.391 124.96 285.463 120.736L314.263 81.856C316.567 78.784 317.815 75.424 318.007 71.776C318.391 67.936 318.583 63.904 318.583 59.68V26.56H315.703V59.68C315.703 63.712 315.511 67.648 315.127 71.488C314.743 75.136 313.591 78.208 311.671 80.704L282.871 119.584C279.991 123.232 277.015 125.92 273.943 127.648C271.063 129.184 267.799 129.952 264.151 129.952H256.375C253.111 129.952 249.847 129.184 246.583 127.648C243.319 126.112 240.439 123.424 237.943 119.584L210.007 80.704C208.087 77.824 206.935 74.656 206.551 71.2C206.167 67.552 205.975 63.712 205.975 59.68V26.56H203.095V59.68C203.095 63.904 203.287 67.936 203.671 71.776C204.055 75.616 205.303 78.976 207.415 81.856L235.351 120.736C238.423 124.96 241.591 128.032 244.855 129.952C248.311 131.872 252.151 132.832 256.375 132.832H259.255V182.08H262.135V132.832H264.151ZM387.726 208C384.078 208 381.39 207.232 379.662 205.696C378.126 203.968 377.358 201.28 377.358 197.632V163.36C377.358 159.712 378.126 157.12 379.662 155.584C381.39 153.856 384.078 152.992 387.726 152.992H416.238V56.224H387.726C384.078 56.224 381.39 55.456 379.662 53.92C378.126 52.192 377.358 49.504 377.358 45.856V11.008C377.358 7.36 378.126 4.768 379.662 3.23199C381.39 1.50399 384.078 0.639992 387.726 0.639992H510.414C514.062 0.639992 516.654 1.50399 518.19 3.23199C519.918 4.768 520.782 7.36 520.782 11.008V45.856C520.782 49.504 519.918 52.192 518.19 53.92C516.654 55.456 514.062 56.224 510.414 56.224H482.478V152.992H510.414C514.062 152.992 516.654 153.856 518.19 155.584C519.918 157.12 520.782 159.712 520.782 163.36V197.632C520.782 201.28 519.918 203.968 518.19 205.696C516.654 207.232 514.062 208 510.414 208H387.726ZM494.862 182.08V179.2H450.798V29.44H494.862V26.56H403.278V29.44H447.918V179.2H403.278V182.08H494.862Z"/>
  </symbol>
  <symbol id="logo-7" viewBox="0 0 527 214" fill="none">
    <path fill="currentcolor"
          d="M14.24 213.88C9.632 213.88 6.272 212.824 4.16 210.712C2.048 208.6 0.992001 205.24 0.992001 200.632V14.008C0.992001 9.4 2.048 6.04 4.16 3.92799C6.272 1.81599 9.632 0.759995 14.24 0.759995H142.688C147.296 0.759995 150.656 1.81599 152.768 3.92799C154.88 6.04 155.936 9.4 155.936 14.008V48.28C155.936 52.888 154.88 56.248 152.768 58.36C150.656 60.472 147.296 61.528 142.688 61.528H72.128V85.72H119.36C123.968 85.72 127.328 86.776 129.44 88.888C131.552 91 132.608 94.36 132.608 98.968V133.528C132.608 138.136 131.552 141.496 129.44 143.608C127.328 145.72 123.968 146.776 119.36 146.776H72.128V200.632C72.128 205.24 71.072 208.6 68.96 210.712C66.848 212.824 63.488 213.88 58.88 213.88H14.24ZM58.88 211C62.528 211 65.12 210.232 66.656 208.696C68.384 206.968 69.248 204.28 69.248 200.632V143.896H119.36C123.008 143.896 125.6 143.128 127.136 141.592C128.864 139.864 129.728 137.176 129.728 133.528V98.968C129.728 95.32 128.864 92.728 127.136 91.192C125.6 89.464 123.008 88.6 119.36 88.6H69.248V58.648H142.688C146.336 58.648 148.928 57.88 150.464 56.344C152.192 54.616 153.056 51.928 153.056 48.28V14.008C153.056 10.36 152.192 7.768 150.464 6.23199C148.928 4.50399 146.336 3.63999 142.688 3.63999H14.24C10.592 3.63999 7.904 4.50399 6.176 6.23199C4.64 7.768 3.872 10.36 3.872 14.008V200.632C3.872 204.28 4.64 206.968 6.176 208.696C7.904 210.232 10.592 211 14.24 211H58.88ZM35.264 185.08V29.56H127.136V32.44H38.144V114.808H103.808V117.688H38.144V185.08H35.264ZM240.367 213.88C235.567 213.88 232.111 212.824 229.999 210.712C228.079 208.6 227.119 205.24 227.119 200.632V164.632L183.631 106.456C179.023 100.312 175.951 94.936 174.415 90.328C172.879 85.72 172.111 78.712 172.111 69.304V14.008C172.111 9.4 173.167 6.04 175.279 3.92799C177.391 1.81599 180.751 0.759995 185.359 0.759995H229.711C234.319 0.759995 237.679 1.81599 239.791 3.92799C241.903 6.04 242.959 9.4 242.959 14.008V61.24C242.959 62.968 243.055 64.696 243.247 66.424C243.439 68.152 244.015 69.976 244.975 71.896L258.511 92.632C259.087 93.784 259.663 94.648 260.239 95.224C261.007 95.8 261.871 96.088 262.831 96.088H265.711C266.671 96.088 267.439 95.8 268.015 95.224C268.783 94.648 269.551 93.784 270.319 92.632L283.567 71.896C284.527 69.976 285.103 68.152 285.295 66.424C285.487 64.696 285.583 62.968 285.583 61.24V14.008C285.583 9.4 286.639 6.04 288.751 3.92799C290.863 1.81599 294.223 0.759995 298.831 0.759995H341.743C346.351 0.759995 349.711 1.81599 351.823 3.92799C353.935 6.04 354.991 9.4 354.991 14.008V69.304C354.991 78.712 354.223 85.72 352.687 90.328C351.151 94.936 348.079 100.312 343.471 106.456L300.271 164.92V200.632C300.271 205.24 299.215 208.6 297.103 210.712C294.991 212.824 291.631 213.88 287.023 213.88H240.367ZM287.023 211C290.671 211 293.263 210.232 294.799 208.696C296.527 206.968 297.391 204.28 297.391 200.632V164.056L341.167 104.728C345.391 98.776 348.271 93.592 349.807 89.176C351.343 84.76 352.111 78.136 352.111 69.304V14.008C352.111 10.36 351.247 7.768 349.519 6.23199C347.983 4.50399 345.391 3.63999 341.743 3.63999H298.831C295.183 3.63999 292.495 4.50399 290.767 6.23199C289.231 7.768 288.463 10.36 288.463 14.008V61.24C288.463 63.16 288.367 65.176 288.175 67.288C287.983 69.4 287.215 71.416 285.871 73.336L272.623 94.072C271.663 95.8 270.607 97.048 269.455 97.816C268.495 98.584 267.247 98.968 265.711 98.968H262.831C261.295 98.968 259.951 98.584 258.799 97.816C257.839 97.048 256.879 95.8 255.919 94.072L242.671 73.336C241.327 71.416 240.559 69.4 240.367 67.288C240.175 65.176 240.079 63.16 240.079 61.24V14.008C240.079 10.36 239.215 7.768 237.487 6.23199C235.951 4.50399 233.359 3.63999 229.711 3.63999H185.359C181.711 3.63999 179.023 4.50399 177.295 6.23199C175.759 7.768 174.991 10.36 174.991 14.008V69.304C174.991 78.136 175.663 84.76 177.007 89.176C178.543 93.592 181.519 98.776 185.935 104.728L229.999 163.768V200.632C229.999 204.28 230.767 206.968 232.303 208.696C234.031 210.232 236.719 211 240.367 211H287.023ZM267.151 135.832H265.135V185.08H262.255V135.832H259.375C255.151 135.832 251.311 134.872 247.855 132.952C244.591 131.032 241.423 127.96 238.351 123.736L210.415 84.856C208.303 81.976 207.055 78.616 206.671 74.776C206.287 70.936 206.095 66.904 206.095 62.68V29.56H208.975V62.68C208.975 66.712 209.167 70.552 209.551 74.2C209.935 77.656 211.087 80.824 213.007 83.704L240.943 122.584C243.439 126.424 246.319 129.112 249.583 130.648C252.847 132.184 256.111 132.952 259.375 132.952H267.151C270.799 132.952 274.063 132.184 276.943 130.648C280.015 128.92 282.991 126.232 285.871 122.584L314.671 83.704C316.591 81.208 317.743 78.136 318.127 74.488C318.511 70.648 318.703 66.712 318.703 62.68V29.56H321.583V62.68C321.583 66.904 321.391 70.936 321.007 74.776C320.815 78.424 319.567 81.784 317.263 84.856L288.463 123.736C285.391 127.96 282.127 131.032 278.671 132.952C275.407 134.872 271.567 135.832 267.151 135.832ZM390.726 213.88C386.118 213.88 382.758 212.824 380.646 210.712C378.534 208.6 377.478 205.24 377.478 200.632V166.36C377.478 161.752 378.534 158.392 380.646 156.28C382.758 154.168 386.118 153.112 390.726 153.112H416.358V62.104H390.726C386.118 62.104 382.758 61.048 380.646 58.936C378.534 56.824 377.478 53.464 377.478 48.856V14.008C377.478 9.4 378.534 6.04 380.646 3.92799C382.758 1.81599 386.118 0.759995 390.726 0.759995H513.414C518.022 0.759995 521.382 1.81599 523.494 3.92799C525.606 6.04 526.662 9.4 526.662 14.008V48.856C526.662 53.464 525.606 56.824 523.494 58.936C521.382 61.048 518.022 62.104 513.414 62.104H488.358V153.112H513.414C518.022 153.112 521.382 154.168 523.494 156.28C525.606 158.392 526.662 161.752 526.662 166.36V200.632C526.662 205.24 525.606 208.6 523.494 210.712C521.382 212.824 518.022 213.88 513.414 213.88H390.726ZM390.726 211H513.414C517.062 211 519.654 210.232 521.19 208.696C522.918 206.968 523.782 204.28 523.782 200.632V166.36C523.782 162.712 522.918 160.12 521.19 158.584C519.654 156.856 517.062 155.992 513.414 155.992H485.478V59.224H513.414C517.062 59.224 519.654 58.456 521.19 56.92C522.918 55.192 523.782 52.504 523.782 48.856V14.008C523.782 10.36 522.918 7.768 521.19 6.23199C519.654 4.50399 517.062 3.63999 513.414 3.63999H390.726C387.078 3.63999 384.39 4.50399 382.662 6.23199C381.126 7.768 380.358 10.36 380.358 14.008V48.856C380.358 52.504 381.126 55.192 382.662 56.92C384.39 58.456 387.078 59.224 390.726 59.224H419.238V155.992H390.726C387.078 155.992 384.39 156.856 382.662 158.584C381.126 160.12 380.358 162.712 380.358 166.36V200.632C380.358 204.28 381.126 206.968 382.662 208.696C384.39 210.232 387.078 211 390.726 211ZM497.862 185.08H406.278V182.2H450.918V32.44H406.278V29.56H497.862V32.44H453.798V182.2H497.862V185.08Z"/>
  </symbol>
  <symbol id="logo-8" viewBox="0 0 821 214" fill="none">
    <path fill="currentcolor"
          d="M14.24 213.88C9.632 213.88 6.272 212.824 4.16 210.712C2.048 208.6 0.992001 205.24 0.992001 200.632V14.008C0.992001 9.4 2.048 6.04 4.16 3.92799C6.272 1.81599 9.632 0.759995 14.24 0.759995H142.688C147.296 0.759995 150.656 1.81599 152.768 3.92799C154.88 6.04 155.936 9.4 155.936 14.008V48.28C155.936 52.888 154.88 56.248 152.768 58.36C150.656 60.472 147.296 61.528 142.688 61.528H72.128V85.72H119.36C123.968 85.72 127.328 86.776 129.44 88.888C131.552 91 132.608 94.36 132.608 98.968V133.528C132.608 138.136 131.552 141.496 129.44 143.608C127.328 145.72 123.968 146.776 119.36 146.776H72.128V200.632C72.128 205.24 71.072 208.6 68.96 210.712C66.848 212.824 63.488 213.88 58.88 213.88H14.24ZM58.88 211C62.528 211 65.12 210.232 66.656 208.696C68.384 206.968 69.248 204.28 69.248 200.632V143.896H119.36C123.008 143.896 125.6 143.128 127.136 141.592C128.864 139.864 129.728 137.176 129.728 133.528V98.968C129.728 95.32 128.864 92.728 127.136 91.192C125.6 89.464 123.008 88.6 119.36 88.6H69.248V58.648H142.688C146.336 58.648 148.928 57.88 150.464 56.344C152.192 54.616 153.056 51.928 153.056 48.28V14.008C153.056 10.36 152.192 7.768 150.464 6.23199C148.928 4.50399 146.336 3.63999 142.688 3.63999H14.24C10.592 3.63999 7.904 4.50399 6.176 6.23199C4.64 7.768 3.872 10.36 3.872 14.008V200.632C3.872 204.28 4.64 206.968 6.176 208.696C7.904 210.232 10.592 211 14.24 211H58.88ZM35.264 185.08V29.56H127.136V32.44H38.144V114.808H103.808V117.688H38.144V185.08H35.264ZM250.945 200.632C250.945 205.24 249.889 208.6 247.777 210.712C245.665 212.824 242.305 213.88 237.697 213.88H179.521C174.913 213.88 171.553 212.824 169.441 210.712C167.329 208.6 166.273 205.24 166.273 200.632V142.168C166.273 137.368 167.329 134.008 169.441 132.088C171.553 129.976 174.913 128.92 179.521 128.92H237.697C242.305 128.92 245.665 129.976 247.777 132.088C249.889 134.008 250.945 137.368 250.945 142.168V200.632ZM237.697 211C241.345 211 243.937 210.232 245.473 208.696C247.201 206.968 248.065 204.28 248.065 200.632V142.168C248.065 138.52 247.201 135.928 245.473 134.392C243.937 132.664 241.345 131.8 237.697 131.8H179.521C175.873 131.8 173.185 132.664 171.457 134.392C169.921 135.928 169.153 138.52 169.153 142.168V200.632C169.153 204.28 169.921 206.968 171.457 208.696C173.185 210.232 175.873 211 179.521 211H237.697ZM207.169 185.08V157.72H210.049V185.08H207.169ZM327.836 213.88C323.036 213.88 319.58 212.824 317.468 210.712C315.548 208.6 314.588 205.24 314.588 200.632V164.632L271.1 106.456C266.492 100.312 263.42 94.936 261.884 90.328C260.348 85.72 259.58 78.712 259.58 69.304V14.008C259.58 9.4 260.636 6.04 262.748 3.92799C264.86 1.81599 268.22 0.759995 272.828 0.759995H317.18C321.788 0.759995 325.148 1.81599 327.26 3.92799C329.372 6.04 330.428 9.4 330.428 14.008V61.24C330.428 62.968 330.524 64.696 330.716 66.424C330.908 68.152 331.484 69.976 332.444 71.896L345.98 92.632C346.556 93.784 347.132 94.648 347.708 95.224C348.476 95.8 349.34 96.088 350.3 96.088H353.18C354.14 96.088 354.908 95.8 355.484 95.224C356.252 94.648 357.02 93.784 357.788 92.632L371.036 71.896C371.996 69.976 372.572 68.152 372.764 66.424C372.956 64.696 373.052 62.968 373.052 61.24V14.008C373.052 9.4 374.108 6.04 376.22 3.92799C378.332 1.81599 381.692 0.759995 386.3 0.759995H429.212C433.82 0.759995 437.18 1.81599 439.292 3.92799C441.404 6.04 442.46 9.4 442.46 14.008V69.304C442.46 78.712 441.692 85.72 440.156 90.328C438.62 94.936 435.548 100.312 430.94 106.456L387.74 164.92V200.632C387.74 205.24 386.684 208.6 384.572 210.712C382.46 212.824 379.1 213.88 374.492 213.88H327.836ZM374.492 211C378.14 211 380.732 210.232 382.268 208.696C383.996 206.968 384.86 204.28 384.86 200.632V164.056L428.636 104.728C432.86 98.776 435.74 93.592 437.276 89.176C438.812 84.76 439.58 78.136 439.58 69.304V14.008C439.58 10.36 438.716 7.768 436.988 6.23199C435.452 4.50399 432.86 3.63999 429.212 3.63999H386.3C382.652 3.63999 379.964 4.50399 378.236 6.23199C376.7 7.768 375.932 10.36 375.932 14.008V61.24C375.932 63.16 375.836 65.176 375.644 67.288C375.452 69.4 374.684 71.416 373.34 73.336L360.092 94.072C359.132 95.8 358.076 97.048 356.924 97.816C355.964 98.584 354.716 98.968 353.18 98.968H350.3C348.764 98.968 347.42 98.584 346.268 97.816C345.308 97.048 344.348 95.8 343.388 94.072L330.14 73.336C328.796 71.416 328.028 69.4 327.836 67.288C327.644 65.176 327.548 63.16 327.548 61.24V14.008C327.548 10.36 326.684 7.768 324.956 6.23199C323.42 4.50399 320.828 3.63999 317.18 3.63999H272.828C269.18 3.63999 266.492 4.50399 264.764 6.23199C263.228 7.768 262.46 10.36 262.46 14.008V69.304C262.46 78.136 263.132 84.76 264.476 89.176C266.012 93.592 268.988 98.776 273.404 104.728L317.468 163.768V200.632C317.468 204.28 318.236 206.968 319.772 208.696C321.5 210.232 324.188 211 327.836 211H374.492ZM354.62 135.832H352.604V185.08H349.724V135.832H346.844C342.62 135.832 338.78 134.872 335.324 132.952C332.06 131.032 328.892 127.96 325.82 123.736L297.884 84.856C295.772 81.976 294.524 78.616 294.14 74.776C293.756 70.936 293.564 66.904 293.564 62.68V29.56H296.444V62.68C296.444 66.712 296.636 70.552 297.02 74.2C297.404 77.656 298.556 80.824 300.476 83.704L328.412 122.584C330.908 126.424 333.788 129.112 337.052 130.648C340.316 132.184 343.58 132.952 346.844 132.952H354.62C358.268 132.952 361.532 132.184 364.412 130.648C367.484 128.92 370.46 126.232 373.34 122.584L402.14 83.704C404.06 81.208 405.212 78.136 405.596 74.488C405.98 70.648 406.172 66.712 406.172 62.68V29.56H409.052V62.68C409.052 66.904 408.86 70.936 408.476 74.776C408.284 78.424 407.036 81.784 404.732 84.856L375.932 123.736C372.86 127.96 369.596 131.032 366.14 132.952C362.876 134.872 359.036 135.832 354.62 135.832ZM535.851 200.632C535.851 205.24 534.795 208.6 532.683 210.712C530.571 212.824 527.211 213.88 522.603 213.88H464.427C459.819 213.88 456.459 212.824 454.347 210.712C452.235 208.6 451.179 205.24 451.179 200.632V142.168C451.179 137.368 452.235 134.008 454.347 132.088C456.459 129.976 459.819 128.92 464.427 128.92H522.603C527.211 128.92 530.571 129.976 532.683 132.088C534.795 134.008 535.851 137.368 535.851 142.168V200.632ZM522.603 211C526.251 211 528.843 210.232 530.379 208.696C532.107 206.968 532.971 204.28 532.971 200.632V142.168C532.971 138.52 532.107 135.928 530.379 134.392C528.843 132.664 526.251 131.8 522.603 131.8H464.427C460.779 131.8 458.091 132.664 456.363 134.392C454.827 135.928 454.059 138.52 454.059 142.168V200.632C454.059 204.28 454.827 206.968 456.363 208.696C458.091 210.232 460.779 211 464.427 211H522.603ZM492.075 185.08V157.72H494.955V185.08H492.075ZM574.382 213.88C569.774 213.88 566.414 212.824 564.302 210.712C562.19 208.6 561.134 205.24 561.134 200.632V166.36C561.134 161.752 562.19 158.392 564.302 156.28C566.414 154.168 569.774 153.112 574.382 153.112H600.014V62.104H574.382C569.774 62.104 566.414 61.048 564.302 58.936C562.19 56.824 561.134 53.464 561.134 48.856V14.008C561.134 9.4 562.19 6.04 564.302 3.92799C566.414 1.81599 569.774 0.759995 574.382 0.759995H697.07C701.678 0.759995 705.038 1.81599 707.15 3.92799C709.262 6.04 710.318 9.4 710.318 14.008V48.856C710.318 53.464 709.262 56.824 707.15 58.936C705.038 61.048 701.678 62.104 697.07 62.104H672.014V153.112H697.07C701.678 153.112 705.038 154.168 707.15 156.28C709.262 158.392 710.318 161.752 710.318 166.36V200.632C710.318 205.24 709.262 208.6 707.15 210.712C705.038 212.824 701.678 213.88 697.07 213.88H574.382ZM574.382 211H697.07C700.718 211 703.31 210.232 704.846 208.696C706.574 206.968 707.438 204.28 707.438 200.632V166.36C707.438 162.712 706.574 160.12 704.846 158.584C703.31 156.856 700.718 155.992 697.07 155.992H669.134V59.224H697.07C700.718 59.224 703.31 58.456 704.846 56.92C706.574 55.192 707.438 52.504 707.438 48.856V14.008C707.438 10.36 706.574 7.768 704.846 6.23199C703.31 4.50399 700.718 3.63999 697.07 3.63999H574.382C570.734 3.63999 568.046 4.50399 566.318 6.23199C564.782 7.768 564.014 10.36 564.014 14.008V48.856C564.014 52.504 564.782 55.192 566.318 56.92C568.046 58.456 570.734 59.224 574.382 59.224H602.894V155.992H574.382C570.734 155.992 568.046 156.856 566.318 158.584C564.782 160.12 564.014 162.712 564.014 166.36V200.632C564.014 204.28 564.782 206.968 566.318 208.696C568.046 210.232 570.734 211 574.382 211ZM681.518 185.08H589.934V182.2H634.574V32.44H589.934V29.56H681.518V32.44H637.454V182.2H681.518V185.08ZM820.757 200.632C820.757 205.24 819.701 208.6 817.589 210.712C815.477 212.824 812.117 213.88 807.509 213.88H749.333C744.725 213.88 741.365 212.824 739.253 210.712C737.141 208.6 736.085 205.24 736.085 200.632V142.168C736.085 137.368 737.141 134.008 739.253 132.088C741.365 129.976 744.725 128.92 749.333 128.92H807.509C812.117 128.92 815.477 129.976 817.589 132.088C819.701 134.008 820.757 137.368 820.757 142.168V200.632ZM807.509 211C811.157 211 813.749 210.232 815.285 208.696C817.013 206.968 817.877 204.28 817.877 200.632V142.168C817.877 138.52 817.013 135.928 815.285 134.392C813.749 132.664 811.157 131.8 807.509 131.8H749.333C745.685 131.8 742.997 132.664 741.269 134.392C739.733 135.928 738.965 138.52 738.965 142.168V200.632C738.965 204.28 739.733 206.968 741.269 208.696C742.997 210.232 745.685 211 749.333 211H807.509ZM776.981 185.08V157.72H779.861V185.08H776.981Z"/>
  </symbol>
  <symbol id="logo-9" viewBox="0 0 745 157" fill="none">
    <path fill="currentcolor"
          d="M0.264001 156.08V0.559984H92.136V3.44H3.144V85.808H68.808V88.688H3.144V156.08H0.264001ZM172.169 156.08V128.72H175.049V156.08H172.169ZM319.62 106.832H317.604V156.08H314.724V106.832H311.844C307.62 106.832 303.78 105.872 300.324 103.952C297.06 102.032 293.892 98.96 290.82 94.736L262.884 55.856C260.772 52.976 259.524 49.616 259.14 45.776C258.756 41.936 258.564 37.904 258.564 33.68V0.559984H261.444V33.68C261.444 37.712 261.636 41.552 262.02 45.2C262.404 48.656 263.556 51.824 265.476 54.704L293.412 93.584C295.908 97.424 298.788 100.112 302.052 101.648C305.316 103.184 308.58 103.952 311.844 103.952H319.62C323.268 103.952 326.532 103.184 329.412 101.648C332.484 99.92 335.46 97.232 338.34 93.584L367.14 54.704C369.06 52.208 370.212 49.136 370.596 45.488C370.98 41.648 371.172 37.712 371.172 33.68V0.559984H374.052V33.68C374.052 37.904 373.86 41.936 373.476 45.776C373.284 49.424 372.036 52.784 369.732 55.856L340.932 94.736C337.86 98.96 334.596 102.032 331.14 103.952C327.876 105.872 324.036 106.832 319.62 106.832ZM457.075 156.08V128.72H459.955V156.08H457.075ZM646.518 156.08H554.934V153.2H599.574V3.44H554.934V0.559984H646.518V3.44H602.454V153.2H646.518V156.08ZM741.981 156.08V128.72H744.861V156.08H741.981Z"/>
  </symbol>
</svg>
