<svg width="1059" height="512" viewBox="0 0 1059 512" fill="none" xmlns="http://www.w3.org/2000/svg">
<path d="M101.802 75.7208L863.168 17.486C946.969 11.0763 1005.38 98.989 967.004 173.761L925.379 254.858L828.754 443.114C808.31 482.944 765.321 505.934 720.843 500.823L97.7271 429.214C43.4621 422.978 2.50037 377.039 2.50037 322.417L2.50037 182.908C2.50037 126.717 45.775 80.0061 101.802 75.7208Z" fill="url(#paint0_linear)" stroke="#FFFCE6" stroke-width="5"/>
<path d="M199.848 375.272H155.208C150.6 375.272 147.24 374.216 145.128 372.104C143.016 369.992 141.96 366.632 141.96 362.024L141.96 175.4C141.96 172.904 142.248 170.792 142.824 169.064C143.592 167.336 144.648 165.896 145.992 164.744L183.144 133.352C184.104 132.584 185.352 132.008 186.888 131.624C188.616 131.048 190.44 130.76 192.36 130.76H320.808C325.416 130.76 328.776 131.816 330.888 133.928C333 136.04 334.056 139.4 334.056 144.008V178.28C334.056 180.776 333.672 182.888 332.904 184.616C332.328 186.344 331.368 187.784 330.024 188.936L297.768 215.72C302.184 215.72 305.448 216.776 307.56 218.888C309.672 221 310.728 224.36 310.728 228.968V263.528C310.728 266.024 310.344 268.136 309.576 269.864C309 271.592 308.04 273.032 306.696 274.184L269.256 305.288C268.488 306.056 267.24 306.728 265.512 307.304C263.976 307.88 262.248 308.168 260.328 308.168H250.248V330.632C250.248 333.128 249.864 335.24 249.096 336.968C248.52 338.696 247.56 340.136 246.216 341.288L208.776 372.392C208.008 373.16 206.76 373.832 205.032 374.408C203.496 374.984 201.768 375.272 199.848 375.272ZM237 341C240.648 341 243.24 340.232 244.776 338.696C246.504 336.968 247.368 334.28 247.368 330.632V273.896H297.48C301.128 273.896 303.72 273.128 305.256 271.592C306.984 269.864 307.848 267.176 307.848 263.528V228.968C307.848 225.32 306.984 222.728 305.256 221.192C303.72 219.464 301.128 218.6 297.48 218.6H247.368V188.648H320.808C324.456 188.648 327.048 187.88 328.584 186.344C330.312 184.616 331.176 181.928 331.176 178.28V144.008C331.176 140.36 330.312 137.768 328.584 136.232C327.048 134.504 324.456 133.64 320.808 133.64H192.36C188.712 133.64 186.024 134.504 184.296 136.232C182.76 137.768 181.992 140.36 181.992 144.008V330.632C181.992 334.28 182.76 336.968 184.296 338.696C186.024 340.232 188.712 341 192.36 341H237ZM213.384 315.08V159.56H305.256V162.44H216.264V244.808H281.928V247.688H216.264V315.08H213.384ZM456.679 375.272H410.023C405.223 375.272 401.767 374.216 399.655 372.104C397.735 369.992 396.775 366.632 396.775 362.024V326.024L353.287 267.848C348.679 261.704 345.607 256.328 344.071 251.72C342.535 247.112 341.767 240.104 341.767 230.696V175.4C341.767 172.904 342.055 170.792 342.631 169.064C343.399 167.336 344.455 165.896 345.799 164.744L382.951 133.352C383.911 132.584 385.159 132.008 386.695 131.624C388.423 131.048 390.247 130.76 392.167 130.76H436.519C441.127 130.76 444.487 131.816 446.599 133.928C448.711 136.04 449.767 139.4 449.767 144.008V191.24C449.767 192.968 449.863 194.696 450.055 196.424C450.247 198.152 450.823 199.976 451.783 201.896L455.239 206.792V175.4C455.239 172.904 455.527 170.792 456.103 169.064C456.871 167.336 457.927 165.896 459.271 164.744L496.423 133.352C497.383 132.584 498.631 132.008 500.167 131.624C501.895 131.048 503.719 130.76 505.639 130.76L548.551 130.76C553.159 130.76 556.519 131.816 558.631 133.928C560.743 136.04 561.799 139.4 561.799 144.008V199.304C561.799 208.712 561.031 215.72 559.495 220.328C557.959 224.936 554.887 230.312 550.279 236.456L507.079 294.92V330.632C507.079 333.128 506.695 335.24 505.927 336.968C505.351 338.696 504.391 340.136 503.047 341.288L465.607 372.392C464.839 373.16 463.591 373.832 461.863 374.408C460.327 374.984 458.599 375.272 456.679 375.272ZM493.831 341C497.479 341 500.071 340.232 501.607 338.696C503.335 336.968 504.199 334.28 504.199 330.632V294.056L547.975 234.728C552.199 228.776 555.079 223.592 556.615 219.176C558.151 214.76 558.919 208.136 558.919 199.304V144.008C558.919 140.36 558.055 137.768 556.327 136.232C554.791 134.504 552.199 133.64 548.551 133.64L505.639 133.64C501.991 133.64 499.303 134.504 497.575 136.232C496.039 137.768 495.271 140.36 495.271 144.008V191.24C495.271 193.16 495.175 195.176 494.983 197.288C494.791 199.4 494.023 201.416 492.679 203.336L479.431 224.072C478.471 225.8 477.415 227.048 476.263 227.816C475.303 228.584 474.055 228.968 472.519 228.968H469.639C468.103 228.968 466.759 228.584 465.607 227.816C464.647 227.048 463.687 225.8 462.727 224.072L449.479 203.336C448.135 201.416 447.367 199.4 447.175 197.288C446.983 195.176 446.887 193.16 446.887 191.24V144.008C446.887 140.36 446.023 137.768 444.295 136.232C442.759 134.504 440.167 133.64 436.519 133.64H392.167C388.519 133.64 385.831 134.504 384.103 136.232C382.567 137.768 381.799 140.36 381.799 144.008V199.304C381.799 208.136 382.471 214.76 383.815 219.176C385.351 223.592 388.327 228.776 392.743 234.728L436.807 293.768V330.632C436.807 334.28 437.575 336.968 439.111 338.696C440.839 340.232 443.527 341 447.175 341H493.831ZM473.959 265.832H471.943V315.08H469.063V265.832H466.183C461.959 265.832 458.119 264.872 454.663 262.952C451.399 261.032 448.231 257.96 445.159 253.736L417.223 214.856C415.111 211.976 413.863 208.616 413.479 204.776C413.095 200.936 412.903 196.904 412.903 192.68V159.56H415.783V192.68C415.783 196.712 415.975 200.552 416.359 204.2C416.743 207.656 417.895 210.824 419.815 213.704L447.751 252.584C450.247 256.424 453.127 259.112 456.391 260.648C459.655 262.184 462.919 262.952 466.183 262.952H473.959C477.607 262.952 480.871 262.184 483.751 260.648C486.823 258.92 489.799 256.232 492.679 252.584L521.479 213.704C523.399 211.208 524.551 208.136 524.935 204.488C525.319 200.648 525.511 196.712 525.511 192.68V159.56H528.391V192.68C528.391 196.904 528.199 200.936 527.815 204.776C527.623 208.424 526.375 211.784 524.071 214.856L495.271 253.736C492.199 257.96 488.935 261.032 485.479 262.952C482.215 264.872 478.375 265.832 473.959 265.832ZM711.757 375.272L589.069 375.272C584.461 375.272 581.101 374.216 578.989 372.104C576.877 369.992 575.821 366.632 575.821 362.024V327.752C575.821 325.256 576.109 323.144 576.685 321.416C577.453 319.688 578.509 318.248 579.853 317.096L614.701 287.72V223.496H589.069C584.461 223.496 581.101 222.44 578.989 220.328C576.877 218.216 575.821 214.856 575.821 210.248V175.4C575.821 172.904 576.109 170.792 576.685 169.064C577.453 167.336 578.509 165.896 579.853 164.744L617.005 133.352C617.965 132.584 619.213 132.008 620.749 131.624C622.477 131.048 624.301 130.76 626.221 130.76H748.909C753.517 130.76 756.877 131.816 758.989 133.928C761.101 136.04 762.157 139.4 762.157 144.008V178.856C762.157 181.352 761.773 183.464 761.005 185.192C760.429 186.92 759.469 188.36 758.125 189.512L723.853 218.312V283.112H748.909C753.517 283.112 756.877 284.168 758.989 286.28C761.101 288.392 762.157 291.752 762.157 296.36V330.632C762.157 333.128 761.773 335.24 761.005 336.968C760.429 338.696 759.469 340.136 758.125 341.288L720.685 372.392C719.917 373.16 718.669 373.832 716.941 374.408C715.405 374.984 713.677 375.272 711.757 375.272ZM626.221 341L748.909 341C752.557 341 755.149 340.232 756.685 338.696C758.413 336.968 759.277 334.28 759.277 330.632V296.36C759.277 292.712 758.413 290.12 756.685 288.584C755.149 286.856 752.557 285.992 748.909 285.992H720.973V189.224H748.909C752.557 189.224 755.149 188.456 756.685 186.92C758.413 185.192 759.277 182.504 759.277 178.856V144.008C759.277 140.36 758.413 137.768 756.685 136.232C755.149 134.504 752.557 133.64 748.909 133.64H626.221C622.573 133.64 619.885 134.504 618.157 136.232C616.621 137.768 615.853 140.36 615.853 144.008V178.856C615.853 182.504 616.621 185.192 618.157 186.92C619.885 188.456 622.573 189.224 626.221 189.224H654.733V285.992H626.221C622.573 285.992 619.885 286.856 618.157 288.584C616.621 290.12 615.853 292.712 615.853 296.36V330.632C615.853 334.28 616.621 336.968 618.157 338.696C619.885 340.232 622.573 341 626.221 341ZM733.357 315.08H641.773V312.2H686.413V162.44H641.773V159.56H733.357V162.44H689.293V312.2H733.357V315.08Z" fill="black"/>
<defs>
<linearGradient id="paint0_linear" x1="529.5" y1="0" x2="529.5" y2="512" gradientUnits="userSpaceOnUse">
<stop stop-color="#2BFFBF"/>
<stop offset="1" stop-color="#EEFF87"/>
</linearGradient>
</defs>
</svg>
